<svg width="64" height="64" viewBox="0 0 64 64" fill="none" xmlns="http://www.w3.org/2000/svg">
  <!-- <rect width="64" height="64" fill="black" /> -->
  <rect width="12" height="4" transform="matrix(0.707107 -0.707107 0.70395 0.710249 19 17.4853)" fill="#FCFCFC">
    <animate attributeName="y" values="0;-1;0" dur="2s" repeatCount="indefinite" />
  </rect>
  <rect width="12" height="4" transform="matrix(0.707107 0.707107 -0.70395 0.710249 35.8158 9)" fill="#FCFCFC">
    <animate attributeName="y" values="0;-1;0" dur="2s" repeatCount="indefinite" />
  </rect>
  <rect width="12" height="12" transform="matrix(0.70553 -0.70868 0.70553 0.70868 23.08 21.9993)" fill="#FCFCFC">
    <animate attributeName="y" values="0;-0.8;0" dur="2s" repeatCount="indefinite" />
    <animate attributeName="x" values="0;0.8;0" dur="2s" repeatCount="indefinite" />
  </rect>
  <path
    d="M8 55C8.72634 50.5811 10.1035 46.395 12.7753 42.9771C14.2846 41.0463 16.1329 39.4521 17.8466 37.7292C18.1067 37.4678 18.4654 37.3316 19.0002 37C20.272 43.0044 20.0912 48.8715 19.751 54.8747C15.8723 55 11.9941 55 8 55Z"
    fill="#FCFCFC">
    <animateTransform attributeName="transform" type="translate" values="0,0; 1.5,0; 0,0" dur="2s"
      repeatCount="indefinite" />
  </path>
  <path
    d="M21.9124 55C21.8672 52.521 22.1134 50.0342 21.993 47.565C21.8333 44.2878 21.4287 41.0194 21.0395 37.7578C20.9222 36.7746 21.0131 36.1347 22.0541 35.7476C27.6096 33.6819 33.2179 33.4225 38.9184 35.1027C39.8262 35.3702 40.1032 35.7629 39.9674 36.7551C39.7171 38.5831 39.6418 40.4401 39.5861 42.2878C39.4608 46.4396 39.3921 50.593 39.297 54.8729C33.5426 55 27.7916 55 21.9124 55Z"
    fill="#FCFCFC">
    <animate attributeName="opacity" values="0.8; 1; 0.8" dur="2s" repeatCount="indefinite" />

  </path>
  <path
    d="M42 55C42.06 48.7908 42.2404 42.5816 42.4316 36C50.1487 40.036 53.9853 46.6523 56 54.8951C51.3786 55 46.7495 55 42 55Z"
    fill="#FCFCFC">
    <animateTransform attributeName="transform" type="translate" values="-0.7,0; -2.2,0; -0.7,0" dur="2s"
      repeatCount="indefinite" />
  </path>
</svg>