<?xml version="1.0" encoding="UTF-8" standalone="no"?>
<!DOCTYPE svg PUBLIC "-//W3C//DTD SVG 1.1//EN" "http://www.w3.org/Graphics/SVG/1.1/DTD/svg11.dtd">
<svg xmlns="http://www.w3.org/2000/svg" version="1.1" viewBox="0.00 0.00 226.00 223.00">
  <g stroke-width="2.00" fill="none" stroke-linecap="butt">
    <path stroke="#e0c2e2" vector-effect="non-scaling-stroke" d="
  M 32.25 0.00
  Q 36.45 0.62 38.69 2.29
  Q 60.35 18.43 82.34 34.09
  C 84.74 35.80 85.29 36.75 85.83 39.50
  Q 86.87 44.82 86.25 48.33" />
    <path stroke="#794d6f" vector-effect="non-scaling-stroke" d="
  M 86.25 48.33
  Q 76.83 52.86 68.40 58.74" />
    <path stroke="#c2b7e4" vector-effect="non-scaling-stroke" d="
  M 68.40 58.74
  Q 67.98 57.54 66.20 58.35
  Q 65.70 58.58 65.31 58.18
  C 62.96 55.77 59.90 54.10 57.21 51.99
  C 47.73 44.56 38.62 38.18 29.41 31.28
  C 20.54 24.64 11.27 18.28 2.14 11.86
  Q 1.31 11.28 0.56 11.46" />
    <path stroke="#e0c2e2" vector-effect="non-scaling-stroke" d="
  M 0.56 11.46
  L 0.00 8.48" />
    <path stroke="#b5e2ee" vector-effect="non-scaling-stroke" d="
  M 226.00 175.64
  Q 218.73 167.65 207.62 162.06" />
    <path stroke="#6c7879" vector-effect="non-scaling-stroke" d="
  M 207.62 162.06
  Q 215.35 150.71 213.99 137.29
  Q 213.52 132.62 212.73 128.09
  Q 212.65 127.60 213.14 127.50
  C 214.62 127.22 215.88 127.15 216.99 125.96
  Q 220.67 121.99 222.81 116.49
  Q 224.22 112.87 223.72 108.32
  Q 221.81 91.01 214.00 77.27
  C 209.19 68.81 201.48 62.55 193.89 55.58
  C 186.19 48.51 177.18 43.17 167.55 38.39
  Q 160.87 35.07 154.21 33.20
  Q 149.58 31.89 142.54 32.97
  Q 138.89 33.53 136.18 35.78
  Q 131.09 39.97 127.80 45.11
  Q 127.48 45.60 127.28 45.05
  Q 126.94 44.10 126.22 43.37
  Q 125.93 43.08 125.55 42.97
  C 119.79 41.38 113.93 39.84 107.93 40.17
  Q 104.76 40.34 99.54 42.57
  Q 92.87 45.41 86.25 48.33" />
    <path stroke="#b5e2ee" vector-effect="non-scaling-stroke" d="
  M 0.56 11.46
  L 0.00 13.64" />
    <path stroke="#4e6d7b" vector-effect="non-scaling-stroke" d="
  M 68.40 58.74
  C 52.52 69.70 37.71 84.72 30.59 102.50" />
    <path stroke="#b5e2ee" vector-effect="non-scaling-stroke" d="
  M 30.59 102.50
  Q 25.17 97.48 23.43 96.34
  Q 11.03 88.19 0.00 79.18" />
    <path stroke="#4e6d7b" vector-effect="non-scaling-stroke" d="
  M 207.62 162.06
  L 201.91 168.69
  A 0.33 0.33 0.0 0 0 202.09 169.22
  Q 207.94 170.46 212.67 173.01
  A 2.03 2.02 14.4 0 1 213.74 174.81
  Q 213.74 179.11 211.27 182.91
  C 210.68 183.83 209.84 184.42 209.20 185.29
  Q 208.93 185.66 209.05 186.11
  Q 210.35 190.83 210.18 196.21
  C 210.14 197.50 209.49 198.50 208.37 199.11
  A 0.48 0.48 0.0 0 0 208.21 199.81
  Q 210.70 203.25 212.63 207.30
  Q 216.27 214.97 219.37 223.00" />
    <path stroke="#121113" vector-effect="non-scaling-stroke" d="
  M 212.86 223.00
  Q 212.55 219.58 211.03 215.96
  Q 208.30 209.47 204.54 203.76
  Q 204.02 202.97 203.37 202.29
  Q 203.07 201.97 202.62 202.01
  Q 199.30 202.28 196.59 204.04
  A 1.00 0.98 -12.2 0 0 196.15 204.71
  Q 196.05 205.33 195.62 205.83
  Q 195.35 206.16 194.93 206.17
  Q 193.61 206.23 192.73 207.38
  Q 191.29 209.26 189.99 211.00
  Q 188.84 212.55 188.76 215.44
  Q 188.66 219.24 188.94 223.00" />
    <path stroke="#5d5b5e" vector-effect="non-scaling-stroke" d="
  M 182.74 223.00
  Q 183.08 212.59 184.30 209.82
  Q 186.70 204.39 192.01 201.42
  Q 199.46 197.25 206.18 196.02
  Q 206.68 195.93 206.78 195.44
  Q 207.07 194.09 206.79 192.70" />
    <path stroke="#6b696c" vector-effect="non-scaling-stroke" d="
  M 206.79 192.70
  L 206.66 188.69
  A 0.75 0.74 83.7 0 0 205.78 187.98
  Q 197.57 189.53 191.06 192.16
  C 183.82 195.08 176.93 202.16 175.80 210.25
  Q 175.05 215.60 175.02 223.00" />
    <path stroke="#121113" vector-effect="non-scaling-stroke" d="
  M 171.61 223.00
  Q 172.19 217.57 172.33 212.05
  Q 172.39 209.97 173.13 207.58
  Q 173.82 205.38 174.20 203.10" />
    <path stroke="#5d5b5e" vector-effect="non-scaling-stroke" d="
  M 174.20 203.10
  L 176.98 199.12
  A 0.24 0.24 0.0 0 0 176.73 198.75
  L 144.21 205.62" />
    <path stroke="#121113" vector-effect="non-scaling-stroke" d="
  M 144.21 205.62
  Q 144.02 205.48 143.82 205.45
  Q 143.59 205.41 143.59 205.17
  Q 143.60 205.02 143.65 204.87
  Q 143.71 204.68 143.91 204.62
  Q 147.02 203.62 151.21 203.02
  Q 153.74 202.66 155.96 202.06
  Q 156.54 201.90 157.12 202.04
  Q 158.84 202.45 159.85 200.96
  A 0.31 0.30 -75.8 0 0 159.57 200.48
  Q 154.61 201.01 149.50 200.53
  Q 144.65 200.08 139.42 200.02
  Q 129.54 199.90 121.14 198.86
  Q 115.44 198.15 110.33 197.39
  Q 107.66 196.99 104.96 198.19
  Q 104.46 198.42 103.98 198.12
  Q 103.83 198.02 103.66 198.06
  Q 103.15 198.19 103.14 198.71
  Q 103.13 199.05 102.96 199.29" />
    <path stroke="#5d5b5e" vector-effect="non-scaling-stroke" d="
  M 102.96 199.29
  Q 102.80 199.30 102.67 199.19
  A 0.07 0.07 0.0 0 0 102.56 199.27
  L 104.06 203.07
  Q 104.26 203.58 104.80 203.67
  L 107.23 204.04" />
    <path stroke="#121113" vector-effect="non-scaling-stroke" d="
  M 107.23 204.04
  Q 106.41 205.05 104.41 205.23
  Q 103.62 205.29 103.96 206.00
  C 104.48 207.09 104.83 208.06 104.87 209.29
  C 104.97 212.65 105.50 215.93 104.97 219.30
  Q 104.69 221.15 104.69 223.00" />
    <path stroke="#6b696c" vector-effect="non-scaling-stroke" d="
  M 101.18 223.00
  Q 102.30 215.92 101.46 208.76
  Q 100.00 196.42 88.59 191.78
  C 81.02 188.69 72.75 188.76 64.83 189.19
  Q 63.68 189.25 62.73 189.93
  Q 61.41 190.88 61.32 192.07" />
    <path stroke="#5d5b5e" vector-effect="non-scaling-stroke" d="
  M 61.32 192.07
  L 61.24 194.17
  A 1.72 1.72 0.0 0 0 63.07 195.96
  Q 77.33 195.14 88.44 202.86
  C 92.90 205.97 94.85 212.83 93.76 217.61
  C 93.34 219.43 93.49 221.16 93.46 223.00" />
    <path stroke="#121113" vector-effect="non-scaling-stroke" d="
  M 86.55 223.00
  Q 87.52 219.78 87.28 215.67
  Q 87.21 214.52 86.67 212.88
  Q 86.23 211.53 85.89 210.30
  Q 85.45 208.66 83.07 207.25
  Q 82.54 206.94 82.21 206.43
  C 80.41 203.65 77.68 205.29 75.76 203.45
  Q 75.01 202.73 74.09 202.34
  Q 71.50 201.25 68.95 201.02
  A 1.56 1.56 0.0 0 0 67.28 202.26
  Q 65.71 209.96 64.49 217.75
  Q 64.14 219.98 64.86 223.00" />
    <path stroke="#643b27" vector-effect="non-scaling-stroke" d="
  M 57.36 223.00
  Q 54.11 219.89 50.74 216.78
  Q 39.57 206.48 25.71 202.29
  Q 14.57 198.93 3.37 198.24
  Q 2.77 198.21 2.87 198.80
  Q 5.03 211.90 13.46 223.00" />
    <path stroke="#6c7879" vector-effect="non-scaling-stroke" d="
  M 7.18 223.00
  Q 2.39 216.36 0.00 208.69" />
    <path stroke="#6c7879" vector-effect="non-scaling-stroke" d="
  M 0.00 173.88
  C 7.58 151.67 30.83 140.84 52.92 140.65
  Q 53.26 140.65 53.24 140.30
  L 52.95 136.76
  Q 52.92 136.49 52.67 136.59
  Q 50.37 137.45 48.18 138.10
  C 39.48 140.69 40.92 120.66 41.48 116.80
  Q 41.62 115.81 40.67 116.13
  C 36.74 117.43 31.50 112.11 29.64 109.14
  C 27.90 106.35 29.68 104.92 30.59 102.50" />
    <path stroke="#494749" vector-effect="non-scaling-stroke" d="
  M 85.59 55.60
  C 66.24 65.52 46.20 82.69 37.14 102.71
  Q 36.46 104.22 35.97 106.16
  Q 35.84 106.70 36.10 107.20
  Q 36.83 108.53 38.20 109.25" />
    <path stroke="#787679" vector-effect="non-scaling-stroke" d="
  M 38.20 109.25
  L 41.10 110.92
  Q 41.59 111.20 41.61 110.64
  Q 41.75 106.94 42.78 102.78
  Q 43.68 99.16 46.61 98.27" />
    <path stroke="#5d5b5e" vector-effect="non-scaling-stroke" d="
  M 46.61 98.27
  C 49.39 97.58 51.59 100.69 49.68 103.01
  Q 48.74 104.14 48.54 105.63
  Q 47.42 114.03 47.25 124.36
  Q 47.18 128.12 47.75 131.08
  Q 47.88 131.74 48.51 131.52
  L 51.26 130.56" />
    <path stroke="#494749" vector-effect="non-scaling-stroke" d="
  M 51.26 130.56
  L 57.12 128.64" />
    <path stroke="#5d5b5e" vector-effect="non-scaling-stroke" d="
  M 57.12 128.64
  L 63.18 126.15
  Q 63.68 125.95 63.65 125.40
  L 63.39 120.65" />
    <path stroke="#6b696c" vector-effect="non-scaling-stroke" d="
  M 63.39 120.65
  Q 63.24 110.51 64.66 100.74
  Q 65.80 92.91 69.52 85.95
  C 70.31 84.47 71.45 84.11 73.02 84.27" />
    <path stroke="#5d5b5e" vector-effect="non-scaling-stroke" d="
  M 73.02 84.27
  Q 76.30 85.57 74.84 88.81
  Q 71.87 95.37 71.15 100.53" />
    <path stroke="#494749" vector-effect="non-scaling-stroke" d="
  M 71.15 100.53
  C 69.16 111.29 68.41 123.55 71.68 134.13
  A 1.29 1.28 -6.4 0 0 72.80 135.02
  L 77.04 135.36" />
    <path stroke="#5d5b5e" vector-effect="non-scaling-stroke" d="
  M 77.04 135.36
  Q 83.33 134.86 88.36 132.91
  A 0.88 0.87 -14.5 0 0 88.91 131.98
  C 88.13 126.17 88.22 118.40 91.10 113.08
  Q 91.84 111.71 93.18 111.40" />
    <path stroke="#787679" vector-effect="non-scaling-stroke" d="
  M 93.18 111.40
  L 95.60 111.84" />
    <path stroke="#6b696c" vector-effect="non-scaling-stroke" d="
  M 95.60 111.84
  Q 96.68 112.70 96.89 114.60" />
    <path stroke="#5d5b5e" vector-effect="non-scaling-stroke" d="
  M 96.89 114.60
  L 95.37 119.75
  Q 95.19 120.35 95.79 120.17
  Q 101.12 118.53 106.03 114.84
  Q 106.55 114.45 105.99 114.11
  C 101.60 111.49 104.59 105.83 108.61 108.36
  Q 112.73 110.95 116.97 113.34
  Q 117.97 113.90 117.90 112.75
  Q 116.75 92.74 121.13 72.52
  Q 122.73 65.13 127.09 59.13" />
    <path stroke="#6b696c" vector-effect="non-scaling-stroke" d="
  M 127.09 59.13
  Q 129.33 55.57 132.03 56.59
  C 133.81 57.27 134.68 59.30 133.46 60.91
  Q 130.00 65.44 128.11 70.33
  Q 127.77 71.21 128.70 71.04
  L 129.42 70.91
  A 1.92 1.91 3.6 0 0 130.89 69.62
  C 131.85 66.64 134.55 64.69 137.52 62.01" />
    <path stroke="#5d5b5e" vector-effect="non-scaling-stroke" d="
  M 137.52 62.01
  L 143.52 57.14
  A 3.40 3.39 -49.6 0 1 147.35 56.83
  C 149.90 58.29 152.28 59.69 154.60 61.77
  Q 157.11 64.02 159.77 66.10" />
    <path stroke="#494749" vector-effect="non-scaling-stroke" d="
  M 159.77 66.10
  Q 174.57 78.93 176.80 99.36
  A 1.25 1.25 0.0 0 0 177.81 100.45
  L 181.76 101.15" />
    <path stroke="#5d5b5e" vector-effect="non-scaling-stroke" d="
  M 181.76 101.15
  L 190.48 103.35" />
    <path stroke="#494749" vector-effect="non-scaling-stroke" d="
  M 190.48 103.35
  L 193.58 104.12
  Q 194.38 104.32 194.03 103.57
  Q 190.55 96.11 186.87 89.04
  Q 184.49 84.48 181.30 80.55" />
    <path stroke="#5d5b5e" vector-effect="non-scaling-stroke" d="
  M 181.30 80.55
  L 177.10 75.76" />
    <path stroke="#787679" vector-effect="non-scaling-stroke" d="
  M 177.10 75.76
  L 177.36 73.34" />
    <path stroke="#6b696c" vector-effect="non-scaling-stroke" d="
  M 177.36 73.34
  Q 178.53 71.31 180.66 71.75
  C 183.47 72.33 188.23 79.09 189.42 81.09
  Q 195.35 91.06 201.91 105.86" />
    <path stroke="#5d5b5e" vector-effect="non-scaling-stroke" d="
  M 201.91 105.86
  Q 203.63 114.81 208.60 120.20" />
    <path stroke="#494749" vector-effect="non-scaling-stroke" d="
  M 208.60 120.20
  L 211.68 121.53
  Q 212.16 121.73 212.57 121.41
  Q 214.31 120.04 214.86 118.55" />
    <path stroke="#5d5b5e" vector-effect="non-scaling-stroke" d="
  M 214.86 118.55
  Q 217.63 114.05 217.74 112.00
  Q 217.93 108.58 216.33 100.61" />
    <path stroke="#494749" vector-effect="non-scaling-stroke" d="
  M 216.33 100.61
  C 213.36 88.29 208.72 77.79 199.51 68.99
  Q 191.94 61.77 183.74 55.27
  Q 180.37 52.59 175.57 50.08" />
    <path stroke="#5d5b5e" vector-effect="non-scaling-stroke" d="
  M 175.57 50.08
  Q 167.70 44.59 157.56 40.54
  Q 152.59 38.55 146.47 38.61
  Q 142.22 38.65 139.01 41.67
  Q 135.63 44.85 132.76 48.40
  C 131.37 50.13 128.31 50.17 127.69 47.75
  Q 127.49 46.97 126.91 47.53
  Q 125.14 49.25 122.76 48.58
  C 118.25 47.31 110.29 45.31 106.28 46.61
  Q 99.56 48.80 85.59 55.60" />
    <path stroke="#a19fa2" vector-effect="non-scaling-stroke" d="
  M 175.57 50.08
  Q 177.21 56.44 184.98 60.55
  Q 190.98 63.72 196.08 69.12
  C 199.48 72.72 202.45 77.42 205.13 81.79
  Q 207.85 86.23 209.65 92.13
  C 210.21 94.00 211.25 95.42 211.82 97.23
  Q 212.27 98.63 213.44 99.58
  Q 214.76 100.65 216.33 100.61" />
    <path stroke="#a19fa2" vector-effect="non-scaling-stroke" d="
  M 214.86 118.55
  Q 214.17 114.96 213.60 111.90
  Q 213.33 110.43 211.94 109.06
  Q 211.49 108.63 210.86 108.65
  Q 208.85 108.72 207.98 110.57
  Q 207.72 111.12 207.88 111.70
  Q 209.02 115.81 208.60 120.20" />
    <path stroke="#c3c1c4" vector-effect="non-scaling-stroke" d="
  M 201.91 105.86
  Q 209.46 107.39 208.18 100.95
  Q 208.06 100.37 207.36 98.68
  Q 206.91 97.59 206.68 96.36" />
    <path stroke="#d0ced1" vector-effect="non-scaling-stroke" d="
  M 206.68 96.36
  Q 203.62 90.16 200.09 83.90
  Q 192.56 70.54 180.31 61.45" />
    <path stroke="#c3c1c4" vector-effect="non-scaling-stroke" d="
  M 180.31 61.45
  Q 178.06 59.10 175.30 57.23
  Q 167.54 51.97 158.95 48.95
  A 0.55 0.53 -1.0 0 1 158.65 48.67
  Q 158.07 47.41 159.29 47.64" />
    <path stroke="#d0ced1" vector-effect="non-scaling-stroke" d="
  M 159.29 47.64
  L 165.18 48.92
  A 0.55 0.55 0.0 0 0 165.84 48.44
  L 165.89 48.06
  A 1.26 1.25 13.7 0 0 165.09 46.76
  C 160.22 44.88 157.00 45.41 152.59 44.94" />
    <path stroke="#c3c1c4" vector-effect="non-scaling-stroke" d="
  M 152.59 44.94
  C 151.41 44.30 149.97 44.34 148.83 45.10
  Q 147.09 46.25 145.02 46.14
  Q 144.56 46.12 144.31 45.72
  L 143.86 44.98" />
    <path stroke="#d0ced1" vector-effect="non-scaling-stroke" d="
  M 143.86 44.98
  Q 143.41 44.55 142.53 45.21
  Q 141.32 46.11 140.30 47.08" />
    <path stroke="#c3c1c4" vector-effect="non-scaling-stroke" d="
  M 140.30 47.08
  Q 138.08 47.32 137.32 48.10
  Q 135.97 49.48 134.30 50.63
  Q 133.81 50.97 133.22 50.98
  Q 132.17 51.00 131.47 51.58
  Q 130.94 52.01 130.26 51.90
  Q 128.08 51.52 126.89 53.12
  Q 126.54 53.60 125.94 53.62
  Q 125.55 53.64 125.27 53.78" />
    <path stroke="#d0ced1" vector-effect="non-scaling-stroke" d="
  M 125.27 53.78
  Q 123.44 51.99 120.75 51.77
  Q 115.61 51.35 110.07 52.03
  Q 107.79 52.31 109.60 53.71
  Q 109.71 53.80 110.79 54.01" />
    <path stroke="#c3c1c4" vector-effect="non-scaling-stroke" d="
  M 110.79 54.01
  L 111.45 54.19
  Q 111.97 54.34 111.70 54.80
  Q 111.62 54.95 111.45 55.06
  Q 111.31 55.16 111.07 55.15
  Q 108.56 55.05 107.37 56.76" />
    <path stroke="#a19fa2" vector-effect="non-scaling-stroke" d="
  M 107.37 56.76
  Q 105.95 54.43 102.75 55.51
  Q 93.37 58.69 86.59 62.10
  C 83.60 63.60 80.63 65.97 78.15 68.33
  Q 75.39 70.95 71.61 74.10
  Q 67.79 77.28 68.98 80.56" />
    <path stroke="#c3c1c4" vector-effect="non-scaling-stroke" d="
  M 68.98 80.56
  Q 67.06 83.40 64.03 84.90" />
    <path stroke="#d0ced1" vector-effect="non-scaling-stroke" d="
  M 64.03 84.90
  Q 59.56 91.46 57.59 100.38" />
    <path stroke="#a19fa2" vector-effect="non-scaling-stroke" d="
  M 57.59 100.38
  Q 57.76 97.98 57.29 97.45
  A 3.68 3.20 -29.4 0 0 53.48 96.67
  Q 52.55 97.00 52.27 98.50
  C 51.48 102.74 50.60 107.03 50.43 111.29
  Q 50.05 120.97 51.26 130.56" />
    <path stroke="#d0ced1" vector-effect="non-scaling-stroke" d="
  M 46.61 98.27
  Q 50.06 91.82 56.29 85.28
  Q 67.21 73.80 77.00 67.23
  C 78.95 65.93 80.95 65.18 82.45 63.32
  A 1.25 1.16 -49.2 0 0 82.39 61.67
  Q 82.38 61.66 81.38 61.62" />
    <path stroke="#a19fa2" vector-effect="non-scaling-stroke" d="
  M 81.38 61.62
  C 83.15 60.69 85.08 60.19 86.40 58.63
  Q 86.74 58.23 86.63 57.72
  Q 86.44 56.76 85.59 55.60" />
    <path stroke="#bcbabd" vector-effect="non-scaling-stroke" d="
  M 56.22 115.46
  Q 56.09 107.63 57.59 100.38" />
    <path stroke="#bcbabd" vector-effect="non-scaling-stroke" d="
  M 81.38 61.62
  Q 76.10 64.50 71.18 68.19
  Q 60.02 76.55 51.97 85.65
  Q 47.23 91.02 44.65 96.13
  Q 42.88 99.64 40.39 104.06
  C 40.01 104.74 40.08 105.20 40.14 105.94
  Q 40.18 106.48 39.70 106.71
  Q 38.30 107.38 38.20 109.25" />
    <path stroke="#a19fa2" vector-effect="non-scaling-stroke" d="
  M 56.13 122.68
  Q 55.69 125.68 57.12 128.64" />
    <path stroke="#dedcdf" vector-effect="non-scaling-stroke" d="
  M 152.59 44.94
  Q 150.34 44.69 149.60 45.64
  A 0.83 0.82 17.4 0 0 150.30 46.97
  Q 154.37 46.75 158.25 47.11
  Q 158.95 47.17 159.29 47.64" />
    <path stroke="#dedcdf" vector-effect="non-scaling-stroke" d="
  M 180.31 61.45
  Q 178.06 59.77 175.77 59.55
  A 0.44 0.44 0.0 0 0 175.39 60.28
  Q 177.61 62.90 180.25 64.81
  C 188.18 70.55 194.74 77.95 198.94 86.62
  Q 201.20 91.29 204.18 96.48
  Q 204.75 97.48 205.84 97.79
  Q 206.31 97.93 206.43 97.44
  L 206.68 96.36" />
    <path stroke="#dedcdf" vector-effect="non-scaling-stroke" d="
  M 177.36 73.34
  Q 173.72 68.05 172.25 66.51
  Q 170.64 64.81 170.14 66.84" />
    <path stroke="#c3c1c4" vector-effect="non-scaling-stroke" d="
  M 170.14 66.84
  Q 169.79 63.60 166.20 61.59" />
    <path stroke="#dedcdf" vector-effect="non-scaling-stroke" d="
  M 166.20 61.59
  Q 165.73 58.68 160.48 56.32
  Q 158.04 55.22 157.05 56.29" />
    <path stroke="#c3c1c4" vector-effect="non-scaling-stroke" d="
  M 157.05 56.29
  Q 154.63 53.44 149.75 53.18
  Q 146.94 53.03 144.40 53.15
  Q 141.88 53.28 140.10 55.37
  Q 138.34 57.45 137.85 59.89
  Q 137.78 60.25 137.53 60.52
  Q 137.26 60.82 136.87 60.84
  Q 136.19 60.88 136.55 61.46
  Q 136.79 61.84 137.52 62.01" />
    <path stroke="#c3c1c4" vector-effect="non-scaling-stroke" d="
  M 127.09 59.13
  Q 126.07 57.78 123.75 57.89" />
    <path stroke="#dedcdf" vector-effect="non-scaling-stroke" d="
  M 123.75 57.89
  L 117.07 58.52
  A 1.36 1.36 0.0 0 0 116.08 59.10
  Q 115.13 60.49 116.77 60.62
  Q 118.37 60.76 120.05 61.18" />
    <path stroke="#c3c1c4" vector-effect="non-scaling-stroke" d="
  M 120.05 61.18
  C 118.13 65.31 115.72 69.65 114.85 74.08
  Q 114.46 76.04 113.11 76.93" />
    <path stroke="#afadb0" vector-effect="non-scaling-stroke" d="
  M 113.11 76.93
  C 110.86 75.41 109.17 77.21 108.75 79.25
  Q 106.49 90.15 104.22 100.87" />
    <path stroke="#c3c1c4" vector-effect="non-scaling-stroke" d="
  M 104.22 100.87
  Q 103.60 106.53 101.04 111.56
  Q 99.76 114.07 96.89 114.60" />
    <path stroke="#dedcdf" vector-effect="non-scaling-stroke" d="
  M 95.60 111.84
  Q 95.91 110.77 95.94 109.60
  C 96.00 107.55 96.90 105.85 97.20 103.89
  C 97.47 102.07 98.79 101.08 99.06 99.28
  C 99.50 96.36 101.09 93.50 102.12 90.76
  A 2.27 2.00 -67.6 0 0 101.18 88.02
  Q 100.56 87.73 99.73 89.19" />
    <path stroke="#c3c1c4" vector-effect="non-scaling-stroke" d="
  M 99.73 89.19
  Q 100.62 85.90 102.18 82.72
  Q 105.49 75.94 108.42 70.13
  Q 110.20 66.60 106.58 65.01
  Q 106.43 64.94 106.32 64.89
  Q 102.73 63.31 100.77 66.71
  Q 99.60 68.74 98.99 69.65
  Q 98.74 70.02 98.35 70.26
  Q 97.26 70.95 96.51 71.93" />
    <path stroke="#afadb0" vector-effect="non-scaling-stroke" d="
  M 96.51 71.93
  Q 94.31 71.94 93.01 73.28" />
    <path stroke="#dedcdf" vector-effect="non-scaling-stroke" d="
  M 93.01 73.28
  L 93.62 70.77
  A 0.97 0.97 0.0 0 0 92.35 69.63
  Q 90.64 70.27 89.53 71.99
  Q 85.30 78.53 83.18 83.77
  Q 82.40 85.71 81.34 87.46" />
    <path stroke="#c3c1c4" vector-effect="non-scaling-stroke" d="
  M 81.34 87.46
  L 80.24 83.63
  Q 80.11 83.15 79.64 82.96
  Q 75.26 81.16 73.02 84.27" />
    <path stroke="#c3c1c4" vector-effect="non-scaling-stroke" d="
  M 63.39 120.65
  C 61.61 121.02 59.74 121.06 58.05 121.86
  Q 57.07 122.33 56.13 122.68" />
    <path stroke="#afadb0" vector-effect="non-scaling-stroke" d="
  M 56.13 122.68
  L 56.22 115.46" />
    <path stroke="#dedcdf" vector-effect="non-scaling-stroke" d="
  M 56.22 115.46
  Q 58.22 115.80 58.42 114.00
  Q 59.16 107.41 60.06 101.29
  Q 60.58 97.77 61.89 94.38
  Q 63.30 90.75 64.65 87.76
  Q 65.67 85.48 64.03 84.90" />
    <path stroke="#afadb0" vector-effect="non-scaling-stroke" d="
  M 68.98 80.56
  Q 71.48 82.46 72.88 80.87
  Q 81.85 70.66 90.12 66.22
  C 94.73 63.74 100.27 61.94 105.55 60.10
  Q 108.12 59.21 107.37 56.76" />
    <path stroke="#dedcdf" vector-effect="non-scaling-stroke" d="
  M 110.79 54.01
  Q 116.80 53.43 119.75 53.83
  Q 123.43 54.34 125.04 54.31
  A 0.33 0.32 1.9 0 0 125.36 54.02
  Q 125.38 53.87 125.27 53.78" />
    <path stroke="#dedcdf" vector-effect="non-scaling-stroke" d="
  M 140.30 47.08
  Q 136.93 49.21 136.04 52.72
  Q 135.94 53.15 136.36 53.28
  L 136.62 53.37
  A 0.61 0.61 0.0 0 0 137.36 53.02
  C 138.23 50.87 140.41 49.99 141.71 48.00
  Q 142.32 47.07 143.30 46.72
  Q 143.81 46.55 143.93 46.02
  Q 144.03 45.59 143.86 44.98" />
    <path stroke="#bcbabd" vector-effect="non-scaling-stroke" d="
  M 93.01 73.28
  Q 90.08 77.18 88.10 82.25
  Q 87.24 84.45 85.86 87.38
  Q 84.52 90.21 83.87 92.65
  Q 82.99 95.97 82.05 99.21
  C 81.06 102.62 80.91 106.15 80.26 109.68
  C 79.70 112.77 80.12 115.90 80.08 118.98
  Q 80.05 121.65 82.15 122.38" />
    <path stroke="#d0ced1" vector-effect="non-scaling-stroke" d="
  M 157.05 56.29
  Q 160.67 59.91 166.20 61.59" />
    <path stroke="#d0ced1" vector-effect="non-scaling-stroke" d="
  M 170.14 66.84
  Q 172.97 72.42 177.10 75.76" />
    <path stroke="#a19fa2" vector-effect="non-scaling-stroke" d="
  M 181.30 80.55
  Q 179.31 82.78 181.37 84.89
  Q 183.92 87.49 185.13 90.06
  C 185.64 91.15 186.55 91.87 186.89 93.05
  Q 187.51 95.25 188.50 97.34
  C 189.06 98.54 188.85 99.74 189.37 100.99
  C 189.69 101.78 190.52 102.19 190.48 103.35" />
    <path stroke="#a19fa2" vector-effect="non-scaling-stroke" d="
  M 181.76 101.15
  Q 181.19 100.32 181.13 99.73" />
    <path stroke="#d0ced1" vector-effect="non-scaling-stroke" d="
  M 181.13 99.73
  Q 181.19 100.20 181.71 100.29
  A 0.86 0.86 0.0 0 0 182.67 99.68
  Q 183.20 97.88 182.70 96.25
  Q 181.50 92.27 179.87 88.19
  Q 178.94 85.87 177.23 87.14" />
    <path stroke="#a19fa2" vector-effect="non-scaling-stroke" d="
  M 177.23 87.14
  Q 176.91 82.23 173.63 78.12
  Q 170.46 74.16 166.93 70.52
  Q 166.51 70.09 165.97 69.83
  C 165.15 69.44 164.92 68.28 164.18 67.62
  Q 163.47 66.99 162.67 66.36
  Q 161.06 65.09 159.77 66.10" />
    <path stroke="#d0ced1" vector-effect="non-scaling-stroke" d="
  M 123.75 57.89
  Q 122.05 60.16 120.05 61.18" />
    <path stroke="#a19fa2" vector-effect="non-scaling-stroke" d="
  M 104.22 100.87
  C 105.20 102.81 108.47 103.72 109.23 101.07
  Q 111.39 93.59 112.61 86.13
  C 112.98 83.92 113.80 81.90 114.23 79.75
  Q 114.62 77.84 113.11 76.93" />
    <path stroke="#d0ced1" vector-effect="non-scaling-stroke" d="
  M 99.73 89.19
  Q 95.07 99.84 93.18 111.40" />
    <path stroke="#a19fa2" vector-effect="non-scaling-stroke" d="
  M 77.04 135.36
  Q 74.20 131.32 73.39 127.34
  C 72.64 123.61 72.39 118.58 72.42 114.04
  Q 72.45 108.28 72.38 102.49
  Q 72.36 100.82 71.15 100.53" />
    <path stroke="#d0ced1" vector-effect="non-scaling-stroke" d="
  M 81.34 87.46
  Q 77.53 96.65 76.80 104.25
  Q 76.12 111.34 75.37 119.25
  Q 75.04 122.85 77.02 126.69
  C 77.55 127.71 77.66 128.69 77.93 129.76
  Q 78.06 130.27 78.54 130.50
  Q 79.01 130.71 79.52 130.60
  Q 80.23 130.44 80.37 129.73
  Q 80.58 128.65 81.45 127.98
  A 2.25 2.24 -8.7 0 0 82.15 127.03
  C 82.56 125.94 83.66 124.81 83.65 123.69
  Q 83.65 122.43 82.15 122.38" />
    <path stroke="#a19fa2" vector-effect="non-scaling-stroke" d="
  M 82.15 122.38
  Q 85.78 122.62 85.59 119.51
  Q 85.10 111.34 86.26 105.54
  Q 88.45 94.64 93.41 84.00
  Q 94.98 80.64 97.44 77.01
  C 98.61 75.28 98.70 72.86 96.51 71.93" />
    <path stroke="#bcbabd" vector-effect="non-scaling-stroke" d="
  M 177.23 87.14
  L 181.13 99.73" />
    <path stroke="#494749" vector-effect="non-scaling-stroke" d="
  M 140.63 67.33
  A 0.35 0.35 0.0 0 0 140.87 67.96
  L 150.86 67.31
  A 0.35 0.35 0.0 0 0 151.05 66.69
  L 146.57 63.10
  A 0.35 0.35 0.0 0 0 146.14 63.10
  L 140.63 67.33" />
    <path stroke="#816f40" vector-effect="non-scaling-stroke" d="
  M 134.14 87.24
  Q 148.31 91.08 154.54 104.10
  Q 154.75 104.54 154.97 104.10
  Q 158.47 96.90 164.26 92.42" />
    <path stroke="#5a4e30" vector-effect="non-scaling-stroke" d="
  M 164.26 92.42
  L 168.13 90.02
  Q 168.59 89.73 168.42 89.21
  Q 165.53 80.76 159.47 74.44
  A 2.32 2.30 68.5 0 0 157.90 73.75
  Q 153.47 73.60 149.35 73.54
  C 142.50 73.44 134.60 75.73 127.20 77.99
  Q 126.24 78.28 126.07 79.27
  L 124.95 85.67
  Q 124.76 86.74 125.86 86.80
  L 134.14 87.24" />
    <path stroke="#d7b96b" vector-effect="non-scaling-stroke" d="
  M 164.26 92.42
  Q 157.70 85.39 150.11 79.57
  C 148.46 78.30 147.18 78.27 145.23 78.67
  Q 141.68 79.38 138.35 80.18
  Q 137.86 80.30 137.52 80.69
  Q 134.99 83.56 134.14 87.24" />
    <path stroke="#818182" vector-effect="non-scaling-stroke" d="
  M 112.66 122.52
  Q 115.71 127.05 119.86 129.58
  C 123.28 131.67 126.20 132.90 130.30 132.93
  Q 139.91 132.99 145.60 126.77
  C 149.77 122.21 151.54 117.38 150.26 111.15
  Q 147.19 96.18 131.28 92.02" />
    <path stroke="#5d5b5e" vector-effect="non-scaling-stroke" d="
  M 131.28 92.02
  L 124.95 92.19
  Q 124.42 92.21 124.38 92.74
  C 123.75 101.05 123.19 109.61 125.03 117.74
  A 2.00 2.00 0.0 0 1 123.30 120.17
  Q 116.99 120.90 112.26 117.75
  Q 111.84 117.47 111.42 117.74
  Q 110.98 118.01 110.71 118.47
  Q 110.46 118.92 110.63 119.41
  Q 111.55 121.94 112.66 122.52" />
    <path stroke="#dad9da" vector-effect="non-scaling-stroke" d="
  M 131.28 92.02
  C 130.83 94.16 129.92 96.13 129.60 98.01
  Q 128.24 106.10 128.45 114.80
  C 128.52 117.76 129.29 120.66 129.98 123.50
  A 2.06 2.05 -7.3 0 1 128.01 126.04
  Q 121.08 126.14 112.66 122.52" />
    <path stroke="#818182" vector-effect="non-scaling-stroke" d="
  M 165.88 97.95
  C 159.78 103.87 155.78 113.81 159.90 121.78
  Q 162.45 126.71 165.86 128.96
  C 176.12 135.72 187.95 130.87 193.34 120.57" />
    <path stroke="#5d5b5e" vector-effect="non-scaling-stroke" d="
  M 193.34 120.57
  Q 196.64 115.93 197.04 110.86
  Q 197.06 110.58 196.78 110.56
  L 192.28 110.31
  A 0.21 0.21 0.0 0 0 192.07 110.59
  Q 193.52 114.87 191.60 117.92" />
    <path stroke="#818182" vector-effect="non-scaling-stroke" d="
  M 191.60 117.92
  Q 189.11 122.03 184.75 121.40
  Q 176.74 120.25 178.15 111.75" />
    <path stroke="#5d5b5e" vector-effect="non-scaling-stroke" d="
  M 178.15 111.75
  L 180.99 107.64
  Q 181.35 107.12 180.72 107.05
  L 173.74 106.25
  A 2.90 2.90 0.0 0 1 171.19 103.72
  L 170.20 95.78
  Q 170.12 95.14 169.53 95.40
  Q 167.28 96.38 165.88 97.95" />
    <path stroke="#dad9da" vector-effect="non-scaling-stroke" d="
  M 178.15 111.75
  Q 175.33 112.56 171.98 112.12
  Q 169.21 111.75 168.52 108.98
  Q 167.19 103.64 165.88 97.95" />
    <path stroke="#dad9da" vector-effect="non-scaling-stroke" d="
  M 191.60 117.92
  Q 192.81 118.50 193.34 120.57" />
    <path stroke="#816f40" vector-effect="non-scaling-stroke" d="
  M 196.64 125.75
  C 191.95 131.87 184.87 137.08 176.99 137.11
  Q 176.37 137.11 176.75 137.61
  Q 183.27 146.03 178.15 154.64
  Q 174.64 160.54 167.68 163.67" />
    <path stroke="#7c6331" vector-effect="non-scaling-stroke" d="
  M 167.68 163.67
  Q 160.48 166.58 154.00 165.98
  Q 142.30 164.91 132.97 156.82" />
    <path stroke="#816f40" vector-effect="non-scaling-stroke" d="
  M 132.97 156.82
  Q 126.31 148.18 132.52 138.89
  A 0.42 0.41 16.0 0 0 132.16 138.25
  Q 130.25 138.31 128.07 138.16
  C 121.00 137.68 113.74 132.89 109.04 127.71" />
    <path stroke="#5a4e30" vector-effect="non-scaling-stroke" d="
  M 109.04 127.71
  L 105.76 123.38
  A 0.84 0.83 60.9 0 0 104.80 123.10
  L 95.52 126.55" />
    <path stroke="#5b1111" vector-effect="non-scaling-stroke" d="
  M 95.52 126.55
  Q 95.07 126.22 94.81 126.49
  Q 94.66 126.65 94.66 127.02
  Q 94.61 130.55 95.69 133.50
  C 96.32 135.21 96.03 137.50 93.86 137.80
  Q 91.69 138.11 89.58 138.94
  C 86.88 140.02 84.14 140.45 81.29 140.96
  C 77.80 141.57 73.97 141.16 70.47 141.21
  Q 69.97 141.22 69.59 140.88
  L 67.25 138.76" />
    <path stroke="#5a4e30" vector-effect="non-scaling-stroke" d="
  M 67.25 138.76
  L 64.80 133.01
  Q 64.61 132.55 64.13 132.71
  L 59.42 134.36
  Q 58.82 134.56 58.87 135.19
  L 59.15 139.30" />
    <path stroke="#7c6331" vector-effect="non-scaling-stroke" d="
  M 59.15 139.30
  Q 60.25 158.99 76.76 169.18
  Q 77.97 169.92 79.27 169.62
  Q 107.00 163.09 134.08 166.80
  Q 153.82 169.50 174.78 174.09
  C 179.05 175.03 182.68 175.01 186.90 174.95
  A 0.33 0.33 0.0 0 0 187.14 174.40
  Q 185.05 172.03 186.95 169.71
  A 1.77 1.72 -77.8 0 1 187.76 169.17
  L 191.31 168.11" />
    <path stroke="#816f40" vector-effect="non-scaling-stroke" d="
  M 191.31 168.11
  L 196.43 165.32" />
    <path stroke="#7f1818" vector-effect="non-scaling-stroke" d="
  M 196.43 165.32
  Q 209.97 154.08 208.36 136.67
  C 208.11 133.99 207.15 130.98 206.62 128.12" />
    <path stroke="#5a4e30" vector-effect="non-scaling-stroke" d="
  M 206.62 128.12
  C 205.72 124.67 202.88 123.34 200.74 120.82
  Q 200.40 120.41 200.09 120.84
  L 196.64 125.75" />
    <path stroke="#d56343" vector-effect="non-scaling-stroke" d="
  M 206.62 128.12
  L 199.86 128.57" />
    <path stroke="#d7b96b" vector-effect="non-scaling-stroke" d="
  M 199.86 128.57
  Q 199.27 127.78 197.47 127.06
  Q 196.73 126.77 196.64 125.75" />
    <path stroke="#fc8453" vector-effect="non-scaling-stroke" d="
  M 199.86 128.57
  Q 189.40 132.99 188.30 145.25
  Q 187.15 157.98 196.43 165.32" />
    <path stroke="#f9ce6c" vector-effect="non-scaling-stroke" d="
  M 191.31 168.11
  Q 188.34 166.61 186.50 166.41
  Q 180.40 165.75 175.54 164.15
  C 173.10 163.35 171.53 163.98 169.27 164.45
  Q 168.02 164.72 167.68 163.67" />
    <path stroke="#d2ad5c" vector-effect="non-scaling-stroke" d="
  M 65.64 141.71
  L 63.43 139.05
  Q 63.13 138.68 62.67 138.76
  L 59.15 139.30" />
    <path stroke="#f77844" vector-effect="non-scaling-stroke" d="
  M 103.69 153.31
  Q 97.44 164.09 86.06 163.97
  Q 78.91 163.90 73.64 159.80
  Q 67.99 155.40 66.32 147.92" />
    <path stroke="#d62624" vector-effect="non-scaling-stroke" d="
  M 101.85 132.26
  C 101.95 133.91 102.03 136.30 100.85 137.61
  Q 100.15 138.39 99.63 139.28
  C 98.89 140.57 97.24 141.58 95.91 142.12
  Q 83.40 147.26 70.04 146.78
  Q 69.54 146.76 69.11 146.50
  Q 68.55 146.16 67.91 146.10
  Q 67.14 146.03 66.75 146.58
  Q 66.39 147.08 66.32 147.92" />
    <path stroke="#d3713d" vector-effect="non-scaling-stroke" d="
  M 66.32 147.92
  L 65.64 141.71" />
    <path stroke="#b15c3c" vector-effect="non-scaling-stroke" d="
  M 65.64 141.71
  L 67.25 138.76" />
    <path stroke="#f9ce6c" vector-effect="non-scaling-stroke" d="
  M 132.97 156.82
  L 131.27 156.02
  Q 130.84 155.82 130.65 155.39
  Q 130.01 153.97 128.75 153.83
  Q 118.42 152.69 103.69 153.31" />
    <path stroke="#fc8453" vector-effect="non-scaling-stroke" d="
  M 103.69 153.31
  Q 108.86 142.22 102.01 132.23" />
    <path stroke="#d7b96b" vector-effect="non-scaling-stroke" d="
  M 109.04 127.71
  L 102.01 132.23" />
    <path stroke="#d56343" vector-effect="non-scaling-stroke" d="
  M 102.01 132.23
  L 101.85 132.26" />
    <path stroke="#b15c3c" vector-effect="non-scaling-stroke" d="
  M 101.85 132.26
  Q 99.60 128.72 95.52 126.55" />
    <path stroke="#816f40" vector-effect="non-scaling-stroke" d="
  M 155.19 124.21
  Q 154.77 123.36 154.38 124.23
  Q 153.26 126.69 151.50 128.59
  Q 150.51 129.66 151.97 129.55
  Q 154.50 129.36 156.96 129.66
  Q 158.95 129.91 157.73 128.31
  Q 156.29 126.44 155.19 124.21" />
    <path stroke="#7f5925" vector-effect="non-scaling-stroke" d="
  M 136.03 147.42
  C 138.13 148.87 140.50 150.01 143.03 150.53
  C 151.92 152.34 160.29 151.20 168.52 147.74
  Q 171.08 146.66 173.27 144.61
  Q 174.73 143.24 173.53 141.65
  C 169.27 136.02 163.08 134.06 156.31 133.47
  Q 146.37 132.60 138.55 139.32
  C 136.97 140.67 136.07 142.45 135.24 144.33
  Q 134.38 146.28 136.03 147.42" />
    <path stroke="#643b27" vector-effect="non-scaling-stroke" d="
  M 56.65 155.42
  L 54.08 146.17
  A 0.39 0.37 81.7 0 0 53.72 145.89
  Q 38.28 145.87 24.03 153.22
  A 0.36 0.36 0.0 0 0 24.07 153.88
  Q 38.63 159.25 56.40 155.82
  A 0.33 0.32 -13.4 0 0 56.65 155.42" />
    <path stroke="#7f5925" vector-effect="non-scaling-stroke" d="
  M 138.02 154.95
  Q 146.54 161.77 157.40 161.67
  Q 168.78 161.56 174.28 151.43
  Q 174.83 150.42 173.81 150.96
  Q 156.89 159.86 138.15 154.71
  Q 137.48 154.53 138.02 154.95" />
    <path stroke="#643b27" vector-effect="non-scaling-stroke" d="
  M 18.73 157.61
  C 17.23 157.03 16.21 158.75 15.24 159.62
  Q 11.70 162.83 9.23 166.54
  Q 8.87 167.08 9.50 167.25
  Q 35.36 174.21 59.64 182.15
  Q 60.26 182.35 60.15 181.71
  C 59.17 176.05 59.10 170.41 61.82 165.41
  Q 62.22 164.68 61.76 163.98
  L 60.06 161.41
  A 1.17 1.15 -20.4 0 0 58.93 160.90
  Q 55.59 161.34 52.16 161.85
  Q 36.02 164.27 18.73 157.61" />
    <path stroke="#121113" vector-effect="non-scaling-stroke" d="
  M 146.28 179.70
  Q 154.15 180.93 163.98 183.67
  Q 172.58 186.06 180.91 188.22
  C 182.73 188.69 184.53 188.74 186.37 189.06
  Q 188.18 189.37 190.05 188.91
  Q 196.07 187.46 201.77 185.39
  C 202.29 185.20 202.67 184.78 203.06 184.40
  Q 204.59 182.90 202.46 182.92
  C 198.99 182.94 195.78 183.07 192.29 182.68
  Q 183.70 181.73 176.00 179.90
  Q 167.77 177.95 159.77 176.43
  C 145.48 173.70 130.94 171.12 116.94 170.79
  Q 103.77 170.49 87.17 173.37
  Q 79.54 174.70 72.77 177.62
  Q 69.89 178.87 67.24 180.79
  A 0.54 0.53 -31.3 0 0 67.07 181.47
  C 68.20 183.81 69.47 185.76 72.41 185.84
  Q 78.94 186.01 85.58 187.51
  C 90.58 188.64 95.79 188.03 100.93 187.98
  Q 110.05 187.89 118.59 184.89
  Q 122.67 183.46 126.60 181.85
  C 132.78 179.32 139.93 178.71 146.28 179.70" />
    <path stroke="#643b27" vector-effect="non-scaling-stroke" d="
  M 59.65 217.20
  C 59.99 211.34 61.11 205.47 62.82 199.96
  Q 63.08 199.12 62.21 199.06
  Q 58.93 198.85 58.35 196.28
  Q 57.39 192.10 58.92 188.15
  Q 59.11 187.66 58.62 187.46
  Q 56.96 186.79 55.30 186.25
  Q 32.49 178.81 7.52 172.10
  Q 6.31 171.78 5.82 172.92
  Q 2.12 181.46 2.26 192.33
  A 0.82 0.81 0.7 0 0 3.05 193.13
  C 24.57 193.87 43.71 201.50 59.17 217.38
  A 0.28 0.28 0.0 0 0 59.65 217.20" />
    <path stroke="#818182" vector-effect="non-scaling-stroke" d="
  M 148.10 113.80
  A 7.42 7.42 0.0 0 0 140.68 106.38
  A 7.42 7.42 0.0 0 0 133.26 113.80
  A 7.42 7.42 0.0 0 0 140.68 121.22
  A 7.42 7.42 0.0 0 0 148.10 113.80" />
    <path stroke="#c3c1c4" vector-effect="non-scaling-stroke" d="
  M 206.79 192.70
  C 204.93 192.97 203.27 193.59 201.38 193.66
  Q 194.31 193.92 189.18 198.21
  Q 187.22 199.85 185.13 201.78
  Q 183.20 203.57 182.29 206.19
  Q 180.71 210.76 180.08 215.02
  Q 180.02 215.41 180.14 218.94
  Q 180.23 221.41 178.49 223.00" />
    <path stroke="#c3c1c4" vector-effect="non-scaling-stroke" d="
  M 96.25 223.00
  Q 95.94 220.86 96.39 219.23
  Q 97.20 216.28 97.21 216.21
  Q 97.83 210.45 95.69 206.44
  Q 92.36 200.23 85.40 196.67
  Q 83.81 195.86 82.08 195.74
  Q 80.34 195.62 78.72 194.60
  Q 77.00 193.52 74.83 193.15
  Q 68.03 192.01 61.32 192.07" />
    <path stroke="#6b696c" vector-effect="non-scaling-stroke" d="
  M 144.21 205.62
  Q 138.64 207.35 132.77 206.13
  Q 113.71 202.18 103.76 199.90
  Q 103.07 199.75 102.96 199.29" />
    <path stroke="#6b696c" vector-effect="non-scaling-stroke" d="
  M 174.20 203.10
  Q 173.18 202.78 171.92 203.17" />
    <path stroke="#5d5b5e" vector-effect="non-scaling-stroke" d="
  M 171.92 203.17
  L 141.27 209.96
  Q 140.56 210.11 140.60 210.84
  L 140.67 212.02
  Q 140.71 212.75 141.44 212.83
  C 142.92 212.98 144.19 213.09 145.35 214.17
  Q 149.06 217.60 148.79 223.00" />
    <path stroke="#6b696c" vector-effect="non-scaling-stroke" d="
  M 131.60 223.00
  L 132.10 215.50
  A 1.56 1.55 79.4 0 1 132.99 214.19
  Q 134.69 213.38 136.61 212.99
  Q 137.18 212.88 137.27 212.31
  Q 137.45 211.25 136.97 210.55
  Q 136.69 210.14 136.20 210.04
  L 107.23 204.04" />
    <path stroke="#d0ced1" vector-effect="non-scaling-stroke" d="
  M 142.88 219.32
  Q 141.63 218.94 141.63 220.25
  L 141.63 220.83
  Q 141.63 221.49 142.24 221.75
  Q 143.35 222.21 143.94 221.24
  Q 144.23 220.77 144.76 220.90
  Q 145.16 221.00 145.25 221.39
  Q 145.30 221.64 145.55 221.71
  Q 145.74 221.77 145.89 221.65
  Q 146.17 221.45 146.07 221.11
  L 145.42 218.99
  Q 144.91 217.36 144.03 218.87
  Q 143.64 219.55 142.88 219.32" />
    <path stroke="#121113" vector-effect="non-scaling-stroke" d="
  M 151.45 223.00
  Q 150.78 220.68 150.19 218.36
  Q 149.65 216.22 148.66 214.97
  C 147.37 213.32 145.56 211.90 143.42 211.49
  Q 142.26 211.26 143.42 211.07
  Q 146.23 210.60 149.17 209.73
  C 151.62 209.00 154.05 209.14 156.46 208.05
  C 158.20 207.26 160.03 207.41 161.83 206.86
  Q 166.66 205.41 170.96 204.83
  Q 171.67 204.74 171.84 204.33
  Q 172.01 203.90 171.92 203.17" />
  </g>
  <path fill="#ed97d8" d="
  M 0.00 0.00
  L 32.25 0.00
  Q 36.45 0.62 38.69 2.29
  Q 60.35 18.43 82.34 34.09
  C 84.74 35.80 85.29 36.75 85.83 39.50
  Q 86.87 44.82 86.25 48.33
  Q 76.83 52.86 68.40 58.74
  Q 67.98 57.54 66.20 58.35
  Q 65.70 58.58 65.31 58.18
  C 62.96 55.77 59.90 54.10 57.21 51.99
  C 47.73 44.56 38.62 38.18 29.41 31.28
  C 20.54 24.64 11.27 18.28 2.14 11.86
  Q 1.31 11.28 0.56 11.46
  L 0.00 8.48
  L 0.00 0.00
  Z" />
  <path fill="#d3ecec" d="
  M 32.25 0.00
  L 226.00 0.00
  L 226.00 175.64
  Q 218.73 167.65 207.62 162.06
  Q 215.35 150.71 213.99 137.29
  Q 213.52 132.62 212.73 128.09
  Q 212.65 127.60 213.14 127.50
  C 214.62 127.22 215.88 127.15 216.99 125.96
  Q 220.67 121.99 222.81 116.49
  Q 224.22 112.87 223.72 108.32
  Q 221.81 91.01 214.00 77.27
  C 209.19 68.81 201.48 62.55 193.89 55.58
  C 186.19 48.51 177.18 43.17 167.55 38.39
  Q 160.87 35.07 154.21 33.20
  Q 149.58 31.89 142.54 32.97
  Q 138.89 33.53 136.18 35.78
  Q 131.09 39.97 127.80 45.11
  Q 127.48 45.60 127.28 45.05
  Q 126.94 44.10 126.22 43.37
  Q 125.93 43.08 125.55 42.97
  C 119.79 41.38 113.93 39.84 107.93 40.17
  Q 104.76 40.34 99.54 42.57
  Q 92.87 45.41 86.25 48.33
  Q 86.87 44.82 85.83 39.50
  C 85.29 36.75 84.74 35.80 82.34 34.09
  Q 60.35 18.43 38.69 2.29
  Q 36.45 0.62 32.25 0.00
  Z" />
  <path fill="#d3ecec" d="
  M 0.00 8.48
  L 0.56 11.46
  L 0.00 13.64
  L 0.00 8.48
  Z" />
  <path fill="#97d7f0" d="
  M 0.56 11.46
  Q 1.31 11.28 2.14 11.86
  C 11.27 18.28 20.54 24.64 29.41 31.28
  C 38.62 38.18 47.73 44.56 57.21 51.99
  C 59.90 54.10 62.96 55.77 65.31 58.18
  Q 65.70 58.58 66.20 58.35
  Q 67.98 57.54 68.40 58.74
  C 52.52 69.70 37.71 84.72 30.59 102.50
  Q 25.17 97.48 23.43 96.34
  Q 11.03 88.19 0.00 79.18
  L 0.00 13.64
  L 0.56 11.46
  Z" />
  <path fill="#040305" d="
  M 207.62 162.06
  L 201.91 168.69
  A 0.33 0.33 0.0 0 0 202.09 169.22
  Q 207.94 170.46 212.67 173.01
  A 2.03 2.02 14.4 0 1 213.74 174.81
  Q 213.74 179.11 211.27 182.91
  C 210.68 183.83 209.84 184.42 209.20 185.29
  Q 208.93 185.66 209.05 186.11
  Q 210.35 190.83 210.18 196.21
  C 210.14 197.50 209.49 198.50 208.37 199.11
  A 0.48 0.48 0.0 0 0 208.21 199.81
  Q 210.70 203.25 212.63 207.30
  Q 216.27 214.97 219.37 223.00
  L 212.86 223.00
  Q 212.55 219.58 211.03 215.96
  Q 208.30 209.47 204.54 203.76
  Q 204.02 202.97 203.37 202.29
  Q 203.07 201.97 202.62 202.01
  Q 199.30 202.28 196.59 204.04
  A 1.00 0.98 -12.2 0 0 196.15 204.71
  Q 196.05 205.33 195.62 205.83
  Q 195.35 206.16 194.93 206.17
  Q 193.61 206.23 192.73 207.38
  Q 191.29 209.26 189.99 211.00
  Q 188.84 212.55 188.76 215.44
  Q 188.66 219.24 188.94 223.00
  L 182.74 223.00
  Q 183.08 212.59 184.30 209.82
  Q 186.70 204.39 192.01 201.42
  Q 199.46 197.25 206.18 196.02
  Q 206.68 195.93 206.78 195.44
  Q 207.07 194.09 206.79 192.70
  L 206.66 188.69
  A 0.75 0.74 83.7 0 0 205.78 187.98
  Q 197.57 189.53 191.06 192.16
  C 183.82 195.08 176.93 202.16 175.80 210.25
  Q 175.05 215.60 175.02 223.00
  L 171.61 223.00
  Q 172.19 217.57 172.33 212.05
  Q 172.39 209.97 173.13 207.58
  Q 173.82 205.38 174.20 203.10
  L 176.98 199.12
  A 0.24 0.24 0.0 0 0 176.73 198.75
  L 144.21 205.62
  Q 144.02 205.48 143.82 205.45
  Q 143.59 205.41 143.59 205.17
  Q 143.60 205.02 143.65 204.87
  Q 143.71 204.68 143.91 204.62
  Q 147.02 203.62 151.21 203.02
  Q 153.74 202.66 155.96 202.06
  Q 156.54 201.90 157.12 202.04
  Q 158.84 202.45 159.85 200.96
  A 0.31 0.30 -75.8 0 0 159.57 200.48
  Q 154.61 201.01 149.50 200.53
  Q 144.65 200.08 139.42 200.02
  Q 129.54 199.90 121.14 198.86
  Q 115.44 198.15 110.33 197.39
  Q 107.66 196.99 104.96 198.19
  Q 104.46 198.42 103.98 198.12
  Q 103.83 198.02 103.66 198.06
  Q 103.15 198.19 103.14 198.71
  Q 103.13 199.05 102.96 199.29
  Q 102.80 199.30 102.67 199.19
  A 0.07 0.07 0.0 0 0 102.56 199.27
  L 104.06 203.07
  Q 104.26 203.58 104.80 203.67
  L 107.23 204.04
  Q 106.41 205.05 104.41 205.23
  Q 103.62 205.29 103.96 206.00
  C 104.48 207.09 104.83 208.06 104.87 209.29
  C 104.97 212.65 105.50 215.93 104.97 219.30
  Q 104.69 221.15 104.69 223.00
  L 101.18 223.00
  Q 102.30 215.92 101.46 208.76
  Q 100.00 196.42 88.59 191.78
  C 81.02 188.69 72.75 188.76 64.83 189.19
  Q 63.68 189.25 62.73 189.93
  Q 61.41 190.88 61.32 192.07
  L 61.24 194.17
  A 1.72 1.72 0.0 0 0 63.07 195.96
  Q 77.33 195.14 88.44 202.86
  C 92.90 205.97 94.85 212.83 93.76 217.61
  C 93.34 219.43 93.49 221.16 93.46 223.00
  L 86.55 223.00
  Q 87.52 219.78 87.28 215.67
  Q 87.21 214.52 86.67 212.88
  Q 86.23 211.53 85.89 210.30
  Q 85.45 208.66 83.07 207.25
  Q 82.54 206.94 82.21 206.43
  C 80.41 203.65 77.68 205.29 75.76 203.45
  Q 75.01 202.73 74.09 202.34
  Q 71.50 201.25 68.95 201.02
  A 1.56 1.56 0.0 0 0 67.28 202.26
  Q 65.71 209.96 64.49 217.75
  Q 64.14 219.98 64.86 223.00
  L 57.36 223.00
  Q 54.11 219.89 50.74 216.78
  Q 39.57 206.48 25.71 202.29
  Q 14.57 198.93 3.37 198.24
  Q 2.77 198.21 2.87 198.80
  Q 5.03 211.90 13.46 223.00
  L 7.18 223.00
  Q 2.39 216.36 0.00 208.69
  L 0.00 173.88
  C 7.58 151.67 30.83 140.84 52.92 140.65
  Q 53.26 140.65 53.24 140.30
  L 52.95 136.76
  Q 52.92 136.49 52.67 136.59
  Q 50.37 137.45 48.18 138.10
  C 39.48 140.69 40.92 120.66 41.48 116.80
  Q 41.62 115.81 40.67 116.13
  C 36.74 117.43 31.50 112.11 29.64 109.14
  C 27.90 106.35 29.68 104.92 30.59 102.50
  C 37.71 84.72 52.52 69.70 68.40 58.74
  Q 76.83 52.86 86.25 48.33
  Q 92.87 45.41 99.54 42.57
  Q 104.76 40.34 107.93 40.17
  C 113.93 39.84 119.79 41.38 125.55 42.97
  Q 125.93 43.08 126.22 43.37
  Q 126.94 44.10 127.28 45.05
  Q 127.48 45.60 127.80 45.11
  Q 131.09 39.97 136.18 35.78
  Q 138.89 33.53 142.54 32.97
  Q 149.58 31.89 154.21 33.20
  Q 160.87 35.07 167.55 38.39
  C 177.18 43.17 186.19 48.51 193.89 55.58
  C 201.48 62.55 209.19 68.81 214.00 77.27
  Q 221.81 91.01 223.72 108.32
  Q 224.22 112.87 222.81 116.49
  Q 220.67 121.99 216.99 125.96
  C 215.88 127.15 214.62 127.22 213.14 127.50
  Q 212.65 127.60 212.73 128.09
  Q 213.52 132.62 213.99 137.29
  Q 215.35 150.71 207.62 162.06
  Z
  M 85.59 55.60
  C 66.24 65.52 46.20 82.69 37.14 102.71
  Q 36.46 104.22 35.97 106.16
  Q 35.84 106.70 36.10 107.20
  Q 36.83 108.53 38.20 109.25
  L 41.10 110.92
  Q 41.59 111.20 41.61 110.64
  Q 41.75 106.94 42.78 102.78
  Q 43.68 99.16 46.61 98.27
  C 49.39 97.58 51.59 100.69 49.68 103.01
  Q 48.74 104.14 48.54 105.63
  Q 47.42 114.03 47.25 124.36
  Q 47.18 128.12 47.75 131.08
  Q 47.88 131.74 48.51 131.52
  L 51.26 130.56
  L 57.12 128.64
  L 63.18 126.15
  Q 63.68 125.95 63.65 125.40
  L 63.39 120.65
  Q 63.24 110.51 64.66 100.74
  Q 65.80 92.91 69.52 85.95
  C 70.31 84.47 71.45 84.11 73.02 84.27
  Q 76.30 85.57 74.84 88.81
  Q 71.87 95.37 71.15 100.53
  C 69.16 111.29 68.41 123.55 71.68 134.13
  A 1.29 1.28 -6.4 0 0 72.80 135.02
  L 77.04 135.36
  Q 83.33 134.86 88.36 132.91
  A 0.88 0.87 -14.5 0 0 88.91 131.98
  C 88.13 126.17 88.22 118.40 91.10 113.08
  Q 91.84 111.71 93.18 111.40
  L 95.60 111.84
  Q 96.68 112.70 96.89 114.60
  L 95.37 119.75
  Q 95.19 120.35 95.79 120.17
  Q 101.12 118.53 106.03 114.84
  Q 106.55 114.45 105.99 114.11
  C 101.60 111.49 104.59 105.83 108.61 108.36
  Q 112.73 110.95 116.97 113.34
  Q 117.97 113.90 117.90 112.75
  Q 116.75 92.74 121.13 72.52
  Q 122.73 65.13 127.09 59.13
  Q 129.33 55.57 132.03 56.59
  C 133.81 57.27 134.68 59.30 133.46 60.91
  Q 130.00 65.44 128.11 70.33
  Q 127.77 71.21 128.70 71.04
  L 129.42 70.91
  A 1.92 1.91 3.6 0 0 130.89 69.62
  C 131.85 66.64 134.55 64.69 137.52 62.01
  L 143.52 57.14
  A 3.40 3.39 -49.6 0 1 147.35 56.83
  C 149.90 58.29 152.28 59.69 154.60 61.77
  Q 157.11 64.02 159.77 66.10
  Q 174.57 78.93 176.80 99.36
  A 1.25 1.25 0.0 0 0 177.81 100.45
  L 181.76 101.15
  L 190.48 103.35
  L 193.58 104.12
  Q 194.38 104.32 194.03 103.57
  Q 190.55 96.11 186.87 89.04
  Q 184.49 84.48 181.30 80.55
  L 177.10 75.76
  L 177.36 73.34
  Q 178.53 71.31 180.66 71.75
  C 183.47 72.33 188.23 79.09 189.42 81.09
  Q 195.35 91.06 201.91 105.86
  Q 203.63 114.81 208.60 120.20
  L 211.68 121.53
  Q 212.16 121.73 212.57 121.41
  Q 214.31 120.04 214.86 118.55
  Q 217.63 114.05 217.74 112.00
  Q 217.93 108.58 216.33 100.61
  C 213.36 88.29 208.72 77.79 199.51 68.99
  Q 191.94 61.77 183.74 55.27
  Q 180.37 52.59 175.57 50.08
  Q 167.70 44.59 157.56 40.54
  Q 152.59 38.55 146.47 38.61
  Q 142.22 38.65 139.01 41.67
  Q 135.63 44.85 132.76 48.40
  C 131.37 50.13 128.31 50.17 127.69 47.75
  Q 127.49 46.97 126.91 47.53
  Q 125.14 49.25 122.76 48.58
  C 118.25 47.31 110.29 45.31 106.28 46.61
  Q 99.56 48.80 85.59 55.60
  Z
  M 140.63 67.33
  A 0.35 0.35 0.0 0 0 140.87 67.96
  L 150.86 67.31
  A 0.35 0.35 0.0 0 0 151.05 66.69
  L 146.57 63.10
  A 0.35 0.35 0.0 0 0 146.14 63.10
  L 140.63 67.33
  Z
  M 134.14 87.24
  Q 148.31 91.08 154.54 104.10
  Q 154.75 104.54 154.97 104.10
  Q 158.47 96.90 164.26 92.42
  L 168.13 90.02
  Q 168.59 89.73 168.42 89.21
  Q 165.53 80.76 159.47 74.44
  A 2.32 2.30 68.5 0 0 157.90 73.75
  Q 153.47 73.60 149.35 73.54
  C 142.50 73.44 134.60 75.73 127.20 77.99
  Q 126.24 78.28 126.07 79.27
  L 124.95 85.67
  Q 124.76 86.74 125.86 86.80
  L 134.14 87.24
  Z
  M 112.66 122.52
  Q 115.71 127.05 119.86 129.58
  C 123.28 131.67 126.20 132.90 130.30 132.93
  Q 139.91 132.99 145.60 126.77
  C 149.77 122.21 151.54 117.38 150.26 111.15
  Q 147.19 96.18 131.28 92.02
  L 124.95 92.19
  Q 124.42 92.21 124.38 92.74
  C 123.75 101.05 123.19 109.61 125.03 117.74
  A 2.00 2.00 0.0 0 1 123.30 120.17
  Q 116.99 120.90 112.26 117.75
  Q 111.84 117.47 111.42 117.74
  Q 110.98 118.01 110.71 118.47
  Q 110.46 118.92 110.63 119.41
  Q 111.55 121.94 112.66 122.52
  Z
  M 165.88 97.95
  C 159.78 103.87 155.78 113.81 159.90 121.78
  Q 162.45 126.71 165.86 128.96
  C 176.12 135.72 187.95 130.87 193.34 120.57
  Q 196.64 115.93 197.04 110.86
  Q 197.06 110.58 196.78 110.56
  L 192.28 110.31
  A 0.21 0.21 0.0 0 0 192.07 110.59
  Q 193.52 114.87 191.60 117.92
  Q 189.11 122.03 184.75 121.40
  Q 176.74 120.25 178.15 111.75
  L 180.99 107.64
  Q 181.35 107.12 180.72 107.05
  L 173.74 106.25
  A 2.90 2.90 0.0 0 1 171.19 103.72
  L 170.20 95.78
  Q 170.12 95.14 169.53 95.40
  Q 167.28 96.38 165.88 97.95
  Z
  M 196.64 125.75
  C 191.95 131.87 184.87 137.08 176.99 137.11
  Q 176.37 137.11 176.75 137.61
  Q 183.27 146.03 178.15 154.64
  Q 174.64 160.54 167.68 163.67
  Q 160.48 166.58 154.00 165.98
  Q 142.30 164.91 132.97 156.82
  Q 126.31 148.18 132.52 138.89
  A 0.42 0.41 16.0 0 0 132.16 138.25
  Q 130.25 138.31 128.07 138.16
  C 121.00 137.68 113.74 132.89 109.04 127.71
  L 105.76 123.38
  A 0.84 0.83 60.9 0 0 104.80 123.10
  L 95.52 126.55
  Q 95.07 126.22 94.81 126.49
  Q 94.66 126.65 94.66 127.02
  Q 94.61 130.55 95.69 133.50
  C 96.32 135.21 96.03 137.50 93.86 137.80
  Q 91.69 138.11 89.58 138.94
  C 86.88 140.02 84.14 140.45 81.29 140.96
  C 77.80 141.57 73.97 141.16 70.47 141.21
  Q 69.97 141.22 69.59 140.88
  L 67.25 138.76
  L 64.80 133.01
  Q 64.61 132.55 64.13 132.71
  L 59.42 134.36
  Q 58.82 134.56 58.87 135.19
  L 59.15 139.30
  Q 60.25 158.99 76.76 169.18
  Q 77.97 169.92 79.27 169.62
  Q 107.00 163.09 134.08 166.80
  Q 153.82 169.50 174.78 174.09
  C 179.05 175.03 182.68 175.01 186.90 174.95
  A 0.33 0.33 0.0 0 0 187.14 174.40
  Q 185.05 172.03 186.95 169.71
  A 1.77 1.72 -77.8 0 1 187.76 169.17
  L 191.31 168.11
  L 196.43 165.32
  Q 209.97 154.08 208.36 136.67
  C 208.11 133.99 207.15 130.98 206.62 128.12
  C 205.72 124.67 202.88 123.34 200.74 120.82
  Q 200.40 120.41 200.09 120.84
  L 196.64 125.75
  Z
  M 155.19 124.21
  Q 154.77 123.36 154.38 124.23
  Q 153.26 126.69 151.50 128.59
  Q 150.51 129.66 151.97 129.55
  Q 154.50 129.36 156.96 129.66
  Q 158.95 129.91 157.73 128.31
  Q 156.29 126.44 155.19 124.21
  Z
  M 136.03 147.42
  C 138.13 148.87 140.50 150.01 143.03 150.53
  C 151.92 152.34 160.29 151.20 168.52 147.74
  Q 171.08 146.66 173.27 144.61
  Q 174.73 143.24 173.53 141.65
  C 169.27 136.02 163.08 134.06 156.31 133.47
  Q 146.37 132.60 138.55 139.32
  C 136.97 140.67 136.07 142.45 135.24 144.33
  Q 134.38 146.28 136.03 147.42
  Z
  M 56.65 155.42
  L 54.08 146.17
  A 0.39 0.37 81.7 0 0 53.72 145.89
  Q 38.28 145.87 24.03 153.22
  A 0.36 0.36 0.0 0 0 24.07 153.88
  Q 38.63 159.25 56.40 155.82
  A 0.33 0.32 -13.4 0 0 56.65 155.42
  Z
  M 138.02 154.95
  Q 146.54 161.77 157.40 161.67
  Q 168.78 161.56 174.28 151.43
  Q 174.83 150.42 173.81 150.96
  Q 156.89 159.86 138.15 154.71
  Q 137.48 154.53 138.02 154.95
  Z
  M 18.73 157.61
  C 17.23 157.03 16.21 158.75 15.24 159.62
  Q 11.70 162.83 9.23 166.54
  Q 8.87 167.08 9.50 167.25
  Q 35.36 174.21 59.64 182.15
  Q 60.26 182.35 60.15 181.71
  C 59.17 176.05 59.10 170.41 61.82 165.41
  Q 62.22 164.68 61.76 163.98
  L 60.06 161.41
  A 1.17 1.15 -20.4 0 0 58.93 160.90
  Q 55.59 161.34 52.16 161.85
  Q 36.02 164.27 18.73 157.61
  Z
  M 146.28 179.70
  Q 154.15 180.93 163.98 183.67
  Q 172.58 186.06 180.91 188.22
  C 182.73 188.69 184.53 188.74 186.37 189.06
  Q 188.18 189.37 190.05 188.91
  Q 196.07 187.46 201.77 185.39
  C 202.29 185.20 202.67 184.78 203.06 184.40
  Q 204.59 182.90 202.46 182.92
  C 198.99 182.94 195.78 183.07 192.29 182.68
  Q 183.70 181.73 176.00 179.90
  Q 167.77 177.95 159.77 176.43
  C 145.48 173.70 130.94 171.12 116.94 170.79
  Q 103.77 170.49 87.17 173.37
  Q 79.54 174.70 72.77 177.62
  Q 69.89 178.87 67.24 180.79
  A 0.54 0.53 -31.3 0 0 67.07 181.47
  C 68.20 183.81 69.47 185.76 72.41 185.84
  Q 78.94 186.01 85.58 187.51
  C 90.58 188.64 95.79 188.03 100.93 187.98
  Q 110.05 187.89 118.59 184.89
  Q 122.67 183.46 126.60 181.85
  C 132.78 179.32 139.93 178.71 146.28 179.70
  Z
  M 59.65 217.20
  C 59.99 211.34 61.11 205.47 62.82 199.96
  Q 63.08 199.12 62.21 199.06
  Q 58.93 198.85 58.35 196.28
  Q 57.39 192.10 58.92 188.15
  Q 59.11 187.66 58.62 187.46
  Q 56.96 186.79 55.30 186.25
  Q 32.49 178.81 7.52 172.10
  Q 6.31 171.78 5.82 172.92
  Q 2.12 181.46 2.26 192.33
  A 0.82 0.81 0.7 0 0 3.05 193.13
  C 24.57 193.87 43.71 201.50 59.17 217.38
  A 0.28 0.28 0.0 0 0 59.65 217.20
  Z" />
  <path fill="#b5b3b6" d="
  M 175.57 50.08
  Q 177.21 56.44 184.98 60.55
  Q 190.98 63.72 196.08 69.12
  C 199.48 72.72 202.45 77.42 205.13 81.79
  Q 207.85 86.23 209.65 92.13
  C 210.21 94.00 211.25 95.42 211.82 97.23
  Q 212.27 98.63 213.44 99.58
  Q 214.76 100.65 216.33 100.61
  Q 217.93 108.58 217.74 112.00
  Q 217.63 114.05 214.86 118.55
  Q 214.17 114.96 213.60 111.90
  Q 213.33 110.43 211.94 109.06
  Q 211.49 108.63 210.86 108.65
  Q 208.85 108.72 207.98 110.57
  Q 207.72 111.12 207.88 111.70
  Q 209.02 115.81 208.60 120.20
  Q 203.63 114.81 201.91 105.86
  Q 209.46 107.39 208.18 100.95
  Q 208.06 100.37 207.36 98.68
  Q 206.91 97.59 206.68 96.36
  Q 203.62 90.16 200.09 83.90
  Q 192.56 70.54 180.31 61.45
  Q 178.06 59.10 175.30 57.23
  Q 167.54 51.97 158.95 48.95
  A 0.55 0.53 -1.0 0 1 158.65 48.67
  Q 158.07 47.41 159.29 47.64
  L 165.18 48.92
  A 0.55 0.55 0.0 0 0 165.84 48.44
  L 165.89 48.06
  A 1.26 1.25 13.7 0 0 165.09 46.76
  C 160.22 44.88 157.00 45.41 152.59 44.94
  C 151.41 44.30 149.97 44.34 148.83 45.10
  Q 147.09 46.25 145.02 46.14
  Q 144.56 46.12 144.31 45.72
  L 143.86 44.98
  Q 143.41 44.55 142.53 45.21
  Q 141.32 46.11 140.30 47.08
  Q 138.08 47.32 137.32 48.10
  Q 135.97 49.48 134.30 50.63
  Q 133.81 50.97 133.22 50.98
  Q 132.17 51.00 131.47 51.58
  Q 130.94 52.01 130.26 51.90
  Q 128.08 51.52 126.89 53.12
  Q 126.54 53.60 125.94 53.62
  Q 125.55 53.64 125.27 53.78
  Q 123.44 51.99 120.75 51.77
  Q 115.61 51.35 110.07 52.03
  Q 107.79 52.31 109.60 53.71
  Q 109.71 53.80 110.79 54.01
  L 111.45 54.19
  Q 111.97 54.34 111.70 54.80
  Q 111.62 54.95 111.45 55.06
  Q 111.31 55.16 111.07 55.15
  Q 108.56 55.05 107.37 56.76
  Q 105.95 54.43 102.75 55.51
  Q 93.37 58.69 86.59 62.10
  C 83.60 63.60 80.63 65.97 78.15 68.33
  Q 75.39 70.95 71.61 74.10
  Q 67.79 77.28 68.98 80.56
  Q 67.06 83.40 64.03 84.90
  Q 59.56 91.46 57.59 100.38
  Q 57.76 97.98 57.29 97.45
  A 3.68 3.20 -29.4 0 0 53.48 96.67
  Q 52.55 97.00 52.27 98.50
  C 51.48 102.74 50.60 107.03 50.43 111.29
  Q 50.05 120.97 51.26 130.56
  L 48.51 131.52
  Q 47.88 131.74 47.75 131.08
  Q 47.18 128.12 47.25 124.36
  Q 47.42 114.03 48.54 105.63
  Q 48.74 104.14 49.68 103.01
  C 51.59 100.69 49.39 97.58 46.61 98.27
  Q 50.06 91.82 56.29 85.28
  Q 67.21 73.80 77.00 67.23
  C 78.95 65.93 80.95 65.18 82.45 63.32
  A 1.25 1.16 -49.2 0 0 82.39 61.67
  Q 82.38 61.66 81.38 61.62
  C 83.15 60.69 85.08 60.19 86.40 58.63
  Q 86.74 58.23 86.63 57.72
  Q 86.44 56.76 85.59 55.60
  Q 99.56 48.80 106.28 46.61
  C 110.29 45.31 118.25 47.31 122.76 48.58
  Q 125.14 49.25 126.91 47.53
  Q 127.49 46.97 127.69 47.75
  C 128.31 50.17 131.37 50.13 132.76 48.40
  Q 135.63 44.85 139.01 41.67
  Q 142.22 38.65 146.47 38.61
  Q 152.59 38.55 157.56 40.54
  Q 167.70 44.59 175.57 50.08
  Z" />
  <path fill="#d1cfd2" d="
  M 152.59 44.94
  Q 150.34 44.69 149.60 45.64
  A 0.83 0.82 17.4 0 0 150.30 46.97
  Q 154.37 46.75 158.25 47.11
  Q 158.95 47.17 159.29 47.64
  Q 158.07 47.41 158.65 48.67
  A 0.55 0.53 -1.0 0 0 158.95 48.95
  Q 167.54 51.97 175.30 57.23
  Q 178.06 59.10 180.31 61.45
  Q 178.06 59.77 175.77 59.55
  A 0.44 0.44 0.0 0 0 175.39 60.28
  Q 177.61 62.90 180.25 64.81
  C 188.18 70.55 194.74 77.95 198.94 86.62
  Q 201.20 91.29 204.18 96.48
  Q 204.75 97.48 205.84 97.79
  Q 206.31 97.93 206.43 97.44
  L 206.68 96.36
  Q 206.91 97.59 207.36 98.68
  Q 208.06 100.37 208.18 100.95
  Q 209.46 107.39 201.91 105.86
  Q 195.35 91.06 189.42 81.09
  C 188.23 79.09 183.47 72.33 180.66 71.75
  Q 178.53 71.31 177.36 73.34
  Q 173.72 68.05 172.25 66.51
  Q 170.64 64.81 170.14 66.84
  Q 169.79 63.60 166.20 61.59
  Q 165.73 58.68 160.48 56.32
  Q 158.04 55.22 157.05 56.29
  Q 154.63 53.44 149.75 53.18
  Q 146.94 53.03 144.40 53.15
  Q 141.88 53.28 140.10 55.37
  Q 138.34 57.45 137.85 59.89
  Q 137.78 60.25 137.53 60.52
  Q 137.26 60.82 136.87 60.84
  Q 136.19 60.88 136.55 61.46
  Q 136.79 61.84 137.52 62.01
  C 134.55 64.69 131.85 66.64 130.89 69.62
  A 1.92 1.91 3.6 0 1 129.42 70.91
  L 128.70 71.04
  Q 127.77 71.21 128.11 70.33
  Q 130.00 65.44 133.46 60.91
  C 134.68 59.30 133.81 57.27 132.03 56.59
  Q 129.33 55.57 127.09 59.13
  Q 126.07 57.78 123.75 57.89
  L 117.07 58.52
  A 1.36 1.36 0.0 0 0 116.08 59.10
  Q 115.13 60.49 116.77 60.62
  Q 118.37 60.76 120.05 61.18
  C 118.13 65.31 115.72 69.65 114.85 74.08
  Q 114.46 76.04 113.11 76.93
  C 110.86 75.41 109.17 77.21 108.75 79.25
  Q 106.49 90.15 104.22 100.87
  Q 103.60 106.53 101.04 111.56
  Q 99.76 114.07 96.89 114.60
  Q 96.68 112.70 95.60 111.84
  Q 95.91 110.77 95.94 109.60
  C 96.00 107.55 96.90 105.85 97.20 103.89
  C 97.47 102.07 98.79 101.08 99.06 99.28
  C 99.50 96.36 101.09 93.50 102.12 90.76
  A 2.27 2.00 -67.6 0 0 101.18 88.02
  Q 100.56 87.73 99.73 89.19
  Q 100.62 85.90 102.18 82.72
  Q 105.49 75.94 108.42 70.13
  Q 110.20 66.60 106.58 65.01
  Q 106.43 64.94 106.32 64.89
  Q 102.73 63.31 100.77 66.71
  Q 99.60 68.74 98.99 69.65
  Q 98.74 70.02 98.35 70.26
  Q 97.26 70.95 96.51 71.93
  Q 94.31 71.94 93.01 73.28
  L 93.62 70.77
  A 0.97 0.97 0.0 0 0 92.35 69.63
  Q 90.64 70.27 89.53 71.99
  Q 85.30 78.53 83.18 83.77
  Q 82.40 85.71 81.34 87.46
  L 80.24 83.63
  Q 80.11 83.15 79.64 82.96
  Q 75.26 81.16 73.02 84.27
  C 71.45 84.11 70.31 84.47 69.52 85.95
  Q 65.80 92.91 64.66 100.74
  Q 63.24 110.51 63.39 120.65
  C 61.61 121.02 59.74 121.06 58.05 121.86
  Q 57.07 122.33 56.13 122.68
  L 56.22 115.46
  Q 58.22 115.80 58.42 114.00
  Q 59.16 107.41 60.06 101.29
  Q 60.58 97.77 61.89 94.38
  Q 63.30 90.75 64.65 87.76
  Q 65.67 85.48 64.03 84.90
  Q 67.06 83.40 68.98 80.56
  Q 71.48 82.46 72.88 80.87
  Q 81.85 70.66 90.12 66.22
  C 94.73 63.74 100.27 61.94 105.55 60.10
  Q 108.12 59.21 107.37 56.76
  Q 108.56 55.05 111.07 55.15
  Q 111.31 55.16 111.45 55.06
  Q 111.62 54.95 111.70 54.80
  Q 111.97 54.34 111.45 54.19
  L 110.79 54.01
  Q 116.80 53.43 119.75 53.83
  Q 123.43 54.34 125.04 54.31
  A 0.33 0.32 1.9 0 0 125.36 54.02
  Q 125.38 53.87 125.27 53.78
  Q 125.55 53.64 125.94 53.62
  Q 126.54 53.60 126.89 53.12
  Q 128.08 51.52 130.26 51.90
  Q 130.94 52.01 131.47 51.58
  Q 132.17 51.00 133.22 50.98
  Q 133.81 50.97 134.30 50.63
  Q 135.97 49.48 137.32 48.10
  Q 138.08 47.32 140.30 47.08
  Q 136.93 49.21 136.04 52.72
  Q 135.94 53.15 136.36 53.28
  L 136.62 53.37
  A 0.61 0.61 0.0 0 0 137.36 53.02
  C 138.23 50.87 140.41 49.99 141.71 48.00
  Q 142.32 47.07 143.30 46.72
  Q 143.81 46.55 143.93 46.02
  Q 144.03 45.59 143.86 44.98
  L 144.31 45.72
  Q 144.56 46.12 145.02 46.14
  Q 147.09 46.25 148.83 45.10
  C 149.97 44.34 151.41 44.30 152.59 44.94
  Z" />
  <path fill="#ebe9ec" d="
  M 143.86 44.98
  Q 144.03 45.59 143.93 46.02
  Q 143.81 46.55 143.30 46.72
  Q 142.32 47.07 141.71 48.00
  C 140.41 49.99 138.23 50.87 137.36 53.02
  A 0.61 0.61 0.0 0 1 136.62 53.37
  L 136.36 53.28
  Q 135.94 53.15 136.04 52.72
  Q 136.93 49.21 140.30 47.08
  Q 141.32 46.11 142.53 45.21
  Q 143.41 44.55 143.86 44.98
  Z" />
  <path fill="#ebe9ec" d="
  M 152.59 44.94
  C 157.00 45.41 160.22 44.88 165.09 46.76
  A 1.26 1.25 13.7 0 1 165.89 48.06
  L 165.84 48.44
  A 0.55 0.55 0.0 0 1 165.18 48.92
  L 159.29 47.64
  Q 158.95 47.17 158.25 47.11
  Q 154.37 46.75 150.30 46.97
  A 0.83 0.82 17.4 0 1 149.60 45.64
  Q 150.34 44.69 152.59 44.94
  Z" />
  <path fill="#8d8a8d" d="
  M 175.57 50.08
  Q 180.37 52.59 183.74 55.27
  Q 191.94 61.77 199.51 68.99
  C 208.72 77.79 213.36 88.29 216.33 100.61
  Q 214.76 100.65 213.44 99.58
  Q 212.27 98.63 211.82 97.23
  C 211.25 95.42 210.21 94.00 209.65 92.13
  Q 207.85 86.23 205.13 81.79
  C 202.45 77.42 199.48 72.72 196.08 69.12
  Q 190.98 63.72 184.98 60.55
  Q 177.21 56.44 175.57 50.08
  Z" />
  <path fill="#ebe9ec" d="
  M 125.27 53.78
  Q 125.38 53.87 125.36 54.02
  A 0.33 0.32 1.9 0 1 125.04 54.31
  Q 123.43 54.34 119.75 53.83
  Q 116.80 53.43 110.79 54.01
  Q 109.71 53.80 109.60 53.71
  Q 107.79 52.31 110.07 52.03
  Q 115.61 51.35 120.75 51.77
  Q 123.44 51.99 125.27 53.78
  Z" />
  <path fill="#b5b3b6" d="
  M 157.05 56.29
  Q 160.67 59.91 166.20 61.59
  Q 169.79 63.60 170.14 66.84
  Q 172.97 72.42 177.10 75.76
  L 181.30 80.55
  Q 179.31 82.78 181.37 84.89
  Q 183.92 87.49 185.13 90.06
  C 185.64 91.15 186.55 91.87 186.89 93.05
  Q 187.51 95.25 188.50 97.34
  C 189.06 98.54 188.85 99.74 189.37 100.99
  C 189.69 101.78 190.52 102.19 190.48 103.35
  L 181.76 101.15
  Q 181.19 100.32 181.13 99.73
  Q 181.19 100.20 181.71 100.29
  A 0.86 0.86 0.0 0 0 182.67 99.68
  Q 183.20 97.88 182.70 96.25
  Q 181.50 92.27 179.87 88.19
  Q 178.94 85.87 177.23 87.14
  Q 176.91 82.23 173.63 78.12
  Q 170.46 74.16 166.93 70.52
  Q 166.51 70.09 165.97 69.83
  C 165.15 69.44 164.92 68.28 164.18 67.62
  Q 163.47 66.99 162.67 66.36
  Q 161.06 65.09 159.77 66.10
  Q 157.11 64.02 154.60 61.77
  C 152.28 59.69 149.90 58.29 147.35 56.83
  A 3.40 3.39 -49.6 0 0 143.52 57.14
  L 137.52 62.01
  Q 136.79 61.84 136.55 61.46
  Q 136.19 60.88 136.87 60.84
  Q 137.26 60.82 137.53 60.52
  Q 137.78 60.25 137.85 59.89
  Q 138.34 57.45 140.10 55.37
  Q 141.88 53.28 144.40 53.15
  Q 146.94 53.03 149.75 53.18
  Q 154.63 53.44 157.05 56.29
  Z" />
  <path fill="#8d8a8d" d="
  M 107.37 56.76
  Q 108.12 59.21 105.55 60.10
  C 100.27 61.94 94.73 63.74 90.12 66.22
  Q 81.85 70.66 72.88 80.87
  Q 71.48 82.46 68.98 80.56
  Q 67.79 77.28 71.61 74.10
  Q 75.39 70.95 78.15 68.33
  C 80.63 65.97 83.60 63.60 86.59 62.10
  Q 93.37 58.69 102.75 55.51
  Q 105.95 54.43 107.37 56.76
  Z" />
  <path fill="#8d8a8d" d="
  M 85.59 55.60
  Q 86.44 56.76 86.63 57.72
  Q 86.74 58.23 86.40 58.63
  C 85.08 60.19 83.15 60.69 81.38 61.62
  Q 76.10 64.50 71.18 68.19
  Q 60.02 76.55 51.97 85.65
  Q 47.23 91.02 44.65 96.13
  Q 42.88 99.64 40.39 104.06
  C 40.01 104.74 40.08 105.20 40.14 105.94
  Q 40.18 106.48 39.70 106.71
  Q 38.30 107.38 38.20 109.25
  Q 36.83 108.53 36.10 107.20
  Q 35.84 106.70 35.97 106.16
  Q 36.46 104.22 37.14 102.71
  C 46.20 82.69 66.24 65.52 85.59 55.60
  Z" />
  <path fill="#ebe9ec" d="
  M 166.20 61.59
  Q 160.67 59.91 157.05 56.29
  Q 158.04 55.22 160.48 56.32
  Q 165.73 58.68 166.20 61.59
  Z" />
  <path fill="#ebe9ec" d="
  M 123.75 57.89
  Q 122.05 60.16 120.05 61.18
  Q 118.37 60.76 116.77 60.62
  Q 115.13 60.49 116.08 59.10
  A 1.36 1.36 0.0 0 1 117.07 58.52
  L 123.75 57.89
  Z" />
  <path fill="#b5b3b6" d="
  M 127.09 59.13
  Q 122.73 65.13 121.13 72.52
  Q 116.75 92.74 117.90 112.75
  Q 117.97 113.90 116.97 113.34
  Q 112.73 110.95 108.61 108.36
  C 104.59 105.83 101.60 111.49 105.99 114.11
  Q 106.55 114.45 106.03 114.84
  Q 101.12 118.53 95.79 120.17
  Q 95.19 120.35 95.37 119.75
  L 96.89 114.60
  Q 99.76 114.07 101.04 111.56
  Q 103.60 106.53 104.22 100.87
  C 105.20 102.81 108.47 103.72 109.23 101.07
  Q 111.39 93.59 112.61 86.13
  C 112.98 83.92 113.80 81.90 114.23 79.75
  Q 114.62 77.84 113.11 76.93
  Q 114.46 76.04 114.85 74.08
  C 115.72 69.65 118.13 65.31 120.05 61.18
  Q 122.05 60.16 123.75 57.89
  Q 126.07 57.78 127.09 59.13
  Z" />
  <path fill="#ebe9ec" d="
  M 180.31 61.45
  Q 192.56 70.54 200.09 83.90
  Q 203.62 90.16 206.68 96.36
  L 206.43 97.44
  Q 206.31 97.93 205.84 97.79
  Q 204.75 97.48 204.18 96.48
  Q 201.20 91.29 198.94 86.62
  C 194.74 77.95 188.18 70.55 180.25 64.81
  Q 177.61 62.90 175.39 60.28
  A 0.44 0.44 0.0 0 1 175.77 59.55
  Q 178.06 59.77 180.31 61.45
  Z" />
  <path fill="#ebe9ec" d="
  M 81.38 61.62
  Q 82.38 61.66 82.39 61.67
  A 1.25 1.16 -49.2 0 1 82.45 63.32
  C 80.95 65.18 78.95 65.93 77.00 67.23
  Q 67.21 73.80 56.29 85.28
  Q 50.06 91.82 46.61 98.27
  Q 43.68 99.16 42.78 102.78
  Q 41.75 106.94 41.61 110.64
  Q 41.59 111.20 41.10 110.92
  L 38.20 109.25
  Q 38.30 107.38 39.70 106.71
  Q 40.18 106.48 40.14 105.94
  C 40.08 105.20 40.01 104.74 40.39 104.06
  Q 42.88 99.64 44.65 96.13
  Q 47.23 91.02 51.97 85.65
  Q 60.02 76.55 71.18 68.19
  Q 76.10 64.50 81.38 61.62
  Z" />
  <path fill="#8d8a8d" d="
  M 140.63 67.33
  L 146.14 63.10
  A 0.35 0.35 0.0 0 1 146.57 63.10
  L 151.05 66.69
  A 0.35 0.35 0.0 0 1 150.86 67.31
  L 140.87 67.96
  A 0.35 0.35 0.0 0 1 140.63 67.33
  Z" />
  <path fill="#b5b3b6" d="
  M 99.73 89.19
  Q 95.07 99.84 93.18 111.40
  Q 91.84 111.71 91.10 113.08
  C 88.22 118.40 88.13 126.17 88.91 131.98
  A 0.88 0.87 -14.5 0 1 88.36 132.91
  Q 83.33 134.86 77.04 135.36
  Q 74.20 131.32 73.39 127.34
  C 72.64 123.61 72.39 118.58 72.42 114.04
  Q 72.45 108.28 72.38 102.49
  Q 72.36 100.82 71.15 100.53
  Q 71.87 95.37 74.84 88.81
  Q 76.30 85.57 73.02 84.27
  Q 75.26 81.16 79.64 82.96
  Q 80.11 83.15 80.24 83.63
  L 81.34 87.46
  Q 77.53 96.65 76.80 104.25
  Q 76.12 111.34 75.37 119.25
  Q 75.04 122.85 77.02 126.69
  C 77.55 127.71 77.66 128.69 77.93 129.76
  Q 78.06 130.27 78.54 130.50
  Q 79.01 130.71 79.52 130.60
  Q 80.23 130.44 80.37 129.73
  Q 80.58 128.65 81.45 127.98
  A 2.25 2.24 -8.7 0 0 82.15 127.03
  C 82.56 125.94 83.66 124.81 83.65 123.69
  Q 83.65 122.43 82.15 122.38
  Q 85.78 122.62 85.59 119.51
  Q 85.10 111.34 86.26 105.54
  Q 88.45 94.64 93.41 84.00
  Q 94.98 80.64 97.44 77.01
  C 98.61 75.28 98.70 72.86 96.51 71.93
  Q 97.26 70.95 98.35 70.26
  Q 98.74 70.02 98.99 69.65
  Q 99.60 68.74 100.77 66.71
  Q 102.73 63.31 106.32 64.89
  Q 106.43 64.94 106.58 65.01
  Q 110.20 66.60 108.42 70.13
  Q 105.49 75.94 102.18 82.72
  Q 100.62 85.90 99.73 89.19
  Z" />
  <path fill="#8d8a8d" d="
  M 177.23 87.14
  L 181.13 99.73
  Q 181.19 100.32 181.76 101.15
  L 177.81 100.45
  A 1.25 1.25 0.0 0 1 176.80 99.36
  Q 174.57 78.93 159.77 66.10
  Q 161.06 65.09 162.67 66.36
  Q 163.47 66.99 164.18 67.62
  C 164.92 68.28 165.15 69.44 165.97 69.83
  Q 166.51 70.09 166.93 70.52
  Q 170.46 74.16 173.63 78.12
  Q 176.91 82.23 177.23 87.14
  Z" />
  <path fill="#ebe9ec" d="
  M 177.36 73.34
  L 177.10 75.76
  Q 172.97 72.42 170.14 66.84
  Q 170.64 64.81 172.25 66.51
  Q 173.72 68.05 177.36 73.34
  Z" />
  <path fill="#ebe9ec" d="
  M 93.01 73.28
  Q 90.08 77.18 88.10 82.25
  Q 87.24 84.45 85.86 87.38
  Q 84.52 90.21 83.87 92.65
  Q 82.99 95.97 82.05 99.21
  C 81.06 102.62 80.91 106.15 80.26 109.68
  C 79.70 112.77 80.12 115.90 80.08 118.98
  Q 80.05 121.65 82.15 122.38
  Q 83.65 122.43 83.65 123.69
  C 83.66 124.81 82.56 125.94 82.15 127.03
  A 2.25 2.24 -8.7 0 1 81.45 127.98
  Q 80.58 128.65 80.37 129.73
  Q 80.23 130.44 79.52 130.60
  Q 79.01 130.71 78.54 130.50
  Q 78.06 130.27 77.93 129.76
  C 77.66 128.69 77.55 127.71 77.02 126.69
  Q 75.04 122.85 75.37 119.25
  Q 76.12 111.34 76.80 104.25
  Q 77.53 96.65 81.34 87.46
  Q 82.40 85.71 83.18 83.77
  Q 85.30 78.53 89.53 71.99
  Q 90.64 70.27 92.35 69.63
  A 0.97 0.97 0.0 0 1 93.62 70.77
  L 93.01 73.28
  Z" />
  <path fill="#8d8a8d" d="
  M 96.51 71.93
  C 98.70 72.86 98.61 75.28 97.44 77.01
  Q 94.98 80.64 93.41 84.00
  Q 88.45 94.64 86.26 105.54
  Q 85.10 111.34 85.59 119.51
  Q 85.78 122.62 82.15 122.38
  Q 80.05 121.65 80.08 118.98
  C 80.12 115.90 79.70 112.77 80.26 109.68
  C 80.91 106.15 81.06 102.62 82.05 99.21
  Q 82.99 95.97 83.87 92.65
  Q 84.52 90.21 85.86 87.38
  Q 87.24 84.45 88.10 82.25
  Q 90.08 77.18 93.01 73.28
  Q 94.31 71.94 96.51 71.93
  Z" />
  <path fill="#af985b" d="
  M 164.26 92.42
  Q 157.70 85.39 150.11 79.57
  C 148.46 78.30 147.18 78.27 145.23 78.67
  Q 141.68 79.38 138.35 80.18
  Q 137.86 80.30 137.52 80.69
  Q 134.99 83.56 134.14 87.24
  L 125.86 86.80
  Q 124.76 86.74 124.95 85.67
  L 126.07 79.27
  Q 126.24 78.28 127.20 77.99
  C 134.60 75.73 142.50 73.44 149.35 73.54
  Q 153.47 73.60 157.90 73.75
  A 2.32 2.30 68.5 0 1 159.47 74.44
  Q 165.53 80.76 168.42 89.21
  Q 168.59 89.73 168.13 90.02
  L 164.26 92.42
  Z" />
  <path fill="#8d8a8d" d="
  M 113.11 76.93
  Q 114.62 77.84 114.23 79.75
  C 113.80 81.90 112.98 83.92 112.61 86.13
  Q 111.39 93.59 109.23 101.07
  C 108.47 103.72 105.20 102.81 104.22 100.87
  Q 106.49 90.15 108.75 79.25
  C 109.17 77.21 110.86 75.41 113.11 76.93
  Z" />
  <path fill="#feda7b" d="
  M 164.26 92.42
  Q 158.47 96.90 154.97 104.10
  Q 154.75 104.54 154.54 104.10
  Q 148.31 91.08 134.14 87.24
  Q 134.99 83.56 137.52 80.69
  Q 137.86 80.30 138.35 80.18
  Q 141.68 79.38 145.23 78.67
  C 147.18 78.27 148.46 78.30 150.11 79.57
  Q 157.70 85.39 164.26 92.42
  Z" />
  <path fill="#d3ecec" d="
  M 0.00 79.18
  Q 11.03 88.19 23.43 96.34
  Q 25.17 97.48 30.59 102.50
  C 29.68 104.92 27.90 106.35 29.64 109.14
  C 31.50 112.11 36.74 117.43 40.67 116.13
  Q 41.62 115.81 41.48 116.80
  C 40.92 120.66 39.48 140.69 48.18 138.10
  Q 50.37 137.45 52.67 136.59
  Q 52.92 136.49 52.95 136.76
  L 53.24 140.30
  Q 53.26 140.65 52.92 140.65
  C 30.83 140.84 7.58 151.67 0.00 173.88
  L 0.00 79.18
  Z" />
  <path fill="#8d8a8d" d="
  M 181.30 80.55
  Q 184.49 84.48 186.87 89.04
  Q 190.55 96.11 194.03 103.57
  Q 194.38 104.32 193.58 104.12
  L 190.48 103.35
  C 190.52 102.19 189.69 101.78 189.37 100.99
  C 188.85 99.74 189.06 98.54 188.50 97.34
  Q 187.51 95.25 186.89 93.05
  C 186.55 91.87 185.64 91.15 185.13 90.06
  Q 183.92 87.49 181.37 84.89
  Q 179.31 82.78 181.30 80.55
  Z" />
  <path fill="#ebe9ec" d="
  M 64.03 84.90
  Q 65.67 85.48 64.65 87.76
  Q 63.30 90.75 61.89 94.38
  Q 60.58 97.77 60.06 101.29
  Q 59.16 107.41 58.42 114.00
  Q 58.22 115.80 56.22 115.46
  Q 56.09 107.63 57.59 100.38
  Q 59.56 91.46 64.03 84.90
  Z" />
  <path fill="#ebe9ec" d="
  M 181.13 99.73
  L 177.23 87.14
  Q 178.94 85.87 179.87 88.19
  Q 181.50 92.27 182.70 96.25
  Q 183.20 97.88 182.67 99.68
  A 0.86 0.86 0.0 0 1 181.71 100.29
  Q 181.19 100.20 181.13 99.73
  Z" />
  <path fill="#ebe9ec" d="
  M 95.60 111.84
  L 93.18 111.40
  Q 95.07 99.84 99.73 89.19
  Q 100.56 87.73 101.18 88.02
  A 2.27 2.00 -67.6 0 1 102.12 90.76
  C 101.09 93.50 99.50 96.36 99.06 99.28
  C 98.79 101.08 97.47 102.07 97.20 103.89
  C 96.90 105.85 96.00 107.55 95.94 109.60
  Q 95.91 110.77 95.60 111.84
  Z" />
  <path fill="#b5b3b6" d="
  M 131.28 92.02
  C 130.83 94.16 129.92 96.13 129.60 98.01
  Q 128.24 106.10 128.45 114.80
  C 128.52 117.76 129.29 120.66 129.98 123.50
  A 2.06 2.05 -7.3 0 1 128.01 126.04
  Q 121.08 126.14 112.66 122.52
  Q 111.55 121.94 110.63 119.41
  Q 110.46 118.92 110.71 118.47
  Q 110.98 118.01 111.42 117.74
  Q 111.84 117.47 112.26 117.75
  Q 116.99 120.90 123.30 120.17
  A 2.00 2.00 0.0 0 0 125.03 117.74
  C 123.19 109.61 123.75 101.05 124.38 92.74
  Q 124.42 92.21 124.95 92.19
  L 131.28 92.02
  Z" />
  <path fill="#fefefe" d="
  M 131.28 92.02
  Q 147.19 96.18 150.26 111.15
  C 151.54 117.38 149.77 122.21 145.60 126.77
  Q 139.91 132.99 130.30 132.93
  C 126.20 132.90 123.28 131.67 119.86 129.58
  Q 115.71 127.05 112.66 122.52
  Q 121.08 126.14 128.01 126.04
  A 2.06 2.05 -7.3 0 0 129.98 123.50
  C 129.29 120.66 128.52 117.76 128.45 114.80
  Q 128.24 106.10 129.60 98.01
  C 129.92 96.13 130.83 94.16 131.28 92.02
  Z
  M 148.10 113.80
  A 7.42 7.42 0.0 0 0 140.68 106.38
  A 7.42 7.42 0.0 0 0 133.26 113.80
  A 7.42 7.42 0.0 0 0 140.68 121.22
  A 7.42 7.42 0.0 0 0 148.10 113.80
  Z" />
  <path fill="#b5b3b6" d="
  M 178.15 111.75
  Q 175.33 112.56 171.98 112.12
  Q 169.21 111.75 168.52 108.98
  Q 167.19 103.64 165.88 97.95
  Q 167.28 96.38 169.53 95.40
  Q 170.12 95.14 170.20 95.78
  L 171.19 103.72
  A 2.90 2.90 0.0 0 0 173.74 106.25
  L 180.72 107.05
  Q 181.35 107.12 180.99 107.64
  L 178.15 111.75
  Z" />
  <path fill="#8d8a8d" d="
  M 57.59 100.38
  Q 56.09 107.63 56.22 115.46
  L 56.13 122.68
  Q 55.69 125.68 57.12 128.64
  L 51.26 130.56
  Q 50.05 120.97 50.43 111.29
  C 50.60 107.03 51.48 102.74 52.27 98.50
  Q 52.55 97.00 53.48 96.67
  A 3.68 3.20 -29.4 0 1 57.29 97.45
  Q 57.76 97.98 57.59 100.38
  Z" />
  <path fill="#fefefe" d="
  M 165.88 97.95
  Q 167.19 103.64 168.52 108.98
  Q 169.21 111.75 171.98 112.12
  Q 175.33 112.56 178.15 111.75
  Q 176.74 120.25 184.75 121.40
  Q 189.11 122.03 191.60 117.92
  Q 192.81 118.50 193.34 120.57
  C 187.95 130.87 176.12 135.72 165.86 128.96
  Q 162.45 126.71 159.90 121.78
  C 155.78 113.81 159.78 103.87 165.88 97.95
  Z" />
  <path fill="#8d8a8d" d="
  M 71.15 100.53
  Q 72.36 100.82 72.38 102.49
  Q 72.45 108.28 72.42 114.04
  C 72.39 118.58 72.64 123.61 73.39 127.34
  Q 74.20 131.32 77.04 135.36
  L 72.80 135.02
  A 1.29 1.28 -6.4 0 1 71.68 134.13
  C 68.41 123.55 69.16 111.29 71.15 100.53
  Z" />
  <circle fill="#040305" cx="140.68" cy="113.80" r="7.42" />
  <path fill="#8d8a8d" d="
  M 214.86 118.55
  Q 214.31 120.04 212.57 121.41
  Q 212.16 121.73 211.68 121.53
  L 208.60 120.20
  Q 209.02 115.81 207.88 111.70
  Q 207.72 111.12 207.98 110.57
  Q 208.85 108.72 210.86 108.65
  Q 211.49 108.63 211.94 109.06
  Q 213.33 110.43 213.60 111.90
  Q 214.17 114.96 214.86 118.55
  Z" />
  <path fill="#b5b3b6" d="
  M 193.34 120.57
  Q 192.81 118.50 191.60 117.92
  Q 193.52 114.87 192.07 110.59
  A 0.21 0.21 0.0 0 1 192.28 110.31
  L 196.78 110.56
  Q 197.06 110.58 197.04 110.86
  Q 196.64 115.93 193.34 120.57
  Z" />
  <path fill="#b5b3b6" d="
  M 63.39 120.65
  L 63.65 125.40
  Q 63.68 125.95 63.18 126.15
  L 57.12 128.64
  Q 55.69 125.68 56.13 122.68
  Q 57.07 122.33 58.05 121.86
  C 59.74 121.06 61.61 121.02 63.39 120.65
  Z" />
  <path fill="#af985b" d="
  M 206.62 128.12
  L 199.86 128.57
  Q 199.27 127.78 197.47 127.06
  Q 196.73 126.77 196.64 125.75
  L 200.09 120.84
  Q 200.40 120.41 200.74 120.82
  C 202.88 123.34 205.72 124.67 206.62 128.12
  Z" />
  <path fill="#af985b" d="
  M 109.04 127.71
  L 102.01 132.23
  L 101.85 132.26
  Q 99.60 128.72 95.52 126.55
  L 104.80 123.10
  A 0.84 0.83 60.9 0 1 105.76 123.38
  L 109.04 127.71
  Z" />
  <path fill="#feda7b" d="
  M 155.19 124.21
  Q 156.29 126.44 157.73 128.31
  Q 158.95 129.91 156.96 129.66
  Q 154.50 129.36 151.97 129.55
  Q 150.51 129.66 151.50 128.59
  Q 153.26 126.69 154.38 124.23
  Q 154.77 123.36 155.19 124.21
  Z" />
  <path fill="#feda7b" d="
  M 196.64 125.75
  Q 196.73 126.77 197.47 127.06
  Q 199.27 127.78 199.86 128.57
  Q 189.40 132.99 188.30 145.25
  Q 187.15 157.98 196.43 165.32
  L 191.31 168.11
  Q 188.34 166.61 186.50 166.41
  Q 180.40 165.75 175.54 164.15
  C 173.10 163.35 171.53 163.98 169.27 164.45
  Q 168.02 164.72 167.68 163.67
  Q 174.64 160.54 178.15 154.64
  Q 183.27 146.03 176.75 137.61
  Q 176.37 137.11 176.99 137.11
  C 184.87 137.08 191.95 131.87 196.64 125.75
  Z" />
  <path fill="#b21f1c" d="
  M 95.52 126.55
  Q 99.60 128.72 101.85 132.26
  C 101.95 133.91 102.03 136.30 100.85 137.61
  Q 100.15 138.39 99.63 139.28
  C 98.89 140.57 97.24 141.58 95.91 142.12
  Q 83.40 147.26 70.04 146.78
  Q 69.54 146.76 69.11 146.50
  Q 68.55 146.16 67.91 146.10
  Q 67.14 146.03 66.75 146.58
  Q 66.39 147.08 66.32 147.92
  L 65.64 141.71
  L 67.25 138.76
  L 69.59 140.88
  Q 69.97 141.22 70.47 141.21
  C 73.97 141.16 77.80 141.57 81.29 140.96
  C 84.14 140.45 86.88 140.02 89.58 138.94
  Q 91.69 138.11 93.86 137.80
  C 96.03 137.50 96.32 135.21 95.69 133.50
  Q 94.61 130.55 94.66 127.02
  Q 94.66 126.65 94.81 126.49
  Q 95.07 126.22 95.52 126.55
  Z" />
  <path fill="#feda7b" d="
  M 109.04 127.71
  C 113.74 132.89 121.00 137.68 128.07 138.16
  Q 130.25 138.31 132.16 138.25
  A 0.42 0.41 16.0 0 1 132.52 138.89
  Q 126.31 148.18 132.97 156.82
  L 131.27 156.02
  Q 130.84 155.82 130.65 155.39
  Q 130.01 153.97 128.75 153.83
  Q 118.42 152.69 103.69 153.31
  Q 108.86 142.22 102.01 132.23
  L 109.04 127.71
  Z" />
  <path fill="#fa2d2b" d="
  M 206.62 128.12
  C 207.15 130.98 208.11 133.99 208.36 136.67
  Q 209.97 154.08 196.43 165.32
  Q 187.15 157.98 188.30 145.25
  Q 189.40 132.99 199.86 128.57
  L 206.62 128.12
  Z" />
  <path fill="#fa2d2b" d="
  M 101.85 132.26
  L 102.01 132.23
  Q 108.86 142.22 103.69 153.31
  Q 97.44 164.09 86.06 163.97
  Q 78.91 163.90 73.64 159.80
  Q 67.99 155.40 66.32 147.92
  Q 66.39 147.08 66.75 146.58
  Q 67.14 146.03 67.91 146.10
  Q 68.55 146.16 69.11 146.50
  Q 69.54 146.76 70.04 146.78
  Q 83.40 147.26 95.91 142.12
  C 97.24 141.58 98.89 140.57 99.63 139.28
  Q 100.15 138.39 100.85 137.61
  C 102.03 136.30 101.95 133.91 101.85 132.26
  Z" />
  <path fill="#af985b" d="
  M 67.25 138.76
  L 65.64 141.71
  L 63.43 139.05
  Q 63.13 138.68 62.67 138.76
  L 59.15 139.30
  L 58.87 135.19
  Q 58.82 134.56 59.42 134.36
  L 64.13 132.71
  Q 64.61 132.55 64.80 133.01
  L 67.25 138.76
  Z" />
  <path fill="#faae44" d="
  M 143.03 150.53
  C 140.50 150.01 138.13 148.87 136.03 147.42
  Q 134.38 146.28 135.24 144.33
  C 136.07 142.45 136.97 140.67 138.55 139.32
  Q 146.37 132.60 156.31 133.47
  C 163.08 134.06 169.27 136.02 173.53 141.65
  Q 174.73 143.24 173.27 144.61
  Q 171.08 146.66 168.52 147.74
  C 160.29 151.20 151.92 152.34 143.03 150.53
  Z" />
  <path fill="#f4c25d" d="
  M 65.64 141.71
  L 66.32 147.92
  Q 67.99 155.40 73.64 159.80
  Q 78.91 163.90 86.06 163.97
  Q 97.44 164.09 103.69 153.31
  Q 118.42 152.69 128.75 153.83
  Q 130.01 153.97 130.65 155.39
  Q 130.84 155.82 131.27 156.02
  L 132.97 156.82
  Q 142.30 164.91 154.00 165.98
  Q 160.48 166.58 167.68 163.67
  Q 168.02 164.72 169.27 164.45
  C 171.53 163.98 173.10 163.35 175.54 164.15
  Q 180.40 165.75 186.50 166.41
  Q 188.34 166.61 191.31 168.11
  L 187.76 169.17
  A 1.77 1.72 -77.8 0 0 186.95 169.71
  Q 185.05 172.03 187.14 174.40
  A 0.33 0.33 0.0 0 1 186.90 174.95
  C 182.68 175.01 179.05 175.03 174.78 174.09
  Q 153.82 169.50 134.08 166.80
  Q 107.00 163.09 79.27 169.62
  Q 77.97 169.92 76.76 169.18
  Q 60.25 158.99 59.15 139.30
  L 62.67 138.76
  Q 63.13 138.68 63.43 139.05
  L 65.64 141.71
  Z" />
  <path fill="#c47249" d="
  M 56.65 155.42
  A 0.33 0.32 -13.4 0 1 56.40 155.82
  Q 38.63 159.25 24.07 153.88
  A 0.36 0.36 0.0 0 1 24.03 153.22
  Q 38.28 145.87 53.72 145.89
  A 0.39 0.37 81.7 0 1 54.08 146.17
  L 56.65 155.42
  Z" />
  <path fill="#faae44" d="
  M 138.02 154.95
  Q 137.48 154.53 138.15 154.71
  Q 156.89 159.86 173.81 150.96
  Q 174.83 150.42 174.28 151.43
  Q 168.78 161.56 157.40 161.67
  Q 146.54 161.77 138.02 154.95
  Z" />
  <path fill="#c47249" d="
  M 18.73 157.61
  Q 36.02 164.27 52.16 161.85
  Q 55.59 161.34 58.93 160.90
  A 1.17 1.15 -20.4 0 1 60.06 161.41
  L 61.76 163.98
  Q 62.22 164.68 61.82 165.41
  C 59.10 170.41 59.17 176.05 60.15 181.71
  Q 60.26 182.35 59.64 182.15
  Q 35.36 174.21 9.50 167.25
  Q 8.87 167.08 9.23 166.54
  Q 11.70 162.83 15.24 159.62
  C 16.21 158.75 17.23 157.03 18.73 157.61
  Z" />
  <path fill="#97d7f0" d="
  M 207.62 162.06
  Q 218.73 167.65 226.00 175.64
  L 226.00 223.00
  L 219.37 223.00
  Q 216.27 214.97 212.63 207.30
  Q 210.70 203.25 208.21 199.81
  A 0.48 0.48 0.0 0 1 208.37 199.11
  C 209.49 198.50 210.14 197.50 210.18 196.21
  Q 210.35 190.83 209.05 186.11
  Q 208.93 185.66 209.20 185.29
  C 209.84 184.42 210.68 183.83 211.27 182.91
  Q 213.74 179.11 213.74 174.81
  A 2.03 2.02 14.4 0 0 212.67 173.01
  Q 207.94 170.46 202.09 169.22
  A 0.33 0.33 0.0 0 1 201.91 168.69
  L 207.62 162.06
  Z" />
  <path fill="#201e21" d="
  M 146.28 179.70
  C 139.93 178.71 132.78 179.32 126.60 181.85
  Q 122.67 183.46 118.59 184.89
  Q 110.05 187.89 100.93 187.98
  C 95.79 188.03 90.58 188.64 85.58 187.51
  Q 78.94 186.01 72.41 185.84
  C 69.47 185.76 68.20 183.81 67.07 181.47
  A 0.54 0.53 -31.3 0 1 67.24 180.79
  Q 69.89 178.87 72.77 177.62
  Q 79.54 174.70 87.17 173.37
  Q 103.77 170.49 116.94 170.79
  C 130.94 171.12 145.48 173.70 159.77 176.43
  Q 167.77 177.95 176.00 179.90
  Q 183.70 181.73 192.29 182.68
  C 195.78 183.07 198.99 182.94 202.46 182.92
  Q 204.59 182.90 203.06 184.40
  C 202.67 184.78 202.29 185.20 201.77 185.39
  Q 196.07 187.46 190.05 188.91
  Q 188.18 189.37 186.37 189.06
  C 184.53 188.74 182.73 188.69 180.91 188.22
  Q 172.58 186.06 163.98 183.67
  Q 154.15 180.93 146.28 179.70
  Z" />
  <path fill="#c47249" d="
  M 62.82 199.96
  C 61.11 205.47 59.99 211.34 59.65 217.20
  A 0.28 0.28 0.0 0 1 59.17 217.38
  C 43.71 201.50 24.57 193.87 3.05 193.13
  A 0.82 0.81 0.7 0 1 2.26 192.33
  Q 2.12 181.46 5.82 172.92
  Q 6.31 171.78 7.52 172.10
  Q 32.49 178.81 55.30 186.25
  Q 56.96 186.79 58.62 187.46
  Q 59.11 187.66 58.92 188.15
  Q 57.39 192.10 58.35 196.28
  Q 58.93 198.85 62.21 199.06
  Q 63.08 199.12 62.82 199.96
  Z" />
  <path fill="#d1cfd2" d="
  M 206.79 192.70
  C 204.93 192.97 203.27 193.59 201.38 193.66
  Q 194.31 193.92 189.18 198.21
  Q 187.22 199.85 185.13 201.78
  Q 183.20 203.57 182.29 206.19
  Q 180.71 210.76 180.08 215.02
  Q 180.02 215.41 180.14 218.94
  Q 180.23 221.41 178.49 223.00
  L 175.02 223.00
  Q 175.05 215.60 175.80 210.25
  C 176.93 202.16 183.82 195.08 191.06 192.16
  Q 197.57 189.53 205.78 187.98
  A 0.75 0.74 83.7 0 1 206.66 188.69
  L 206.79 192.70
  Z" />
  <path fill="#d1cfd2" d="
  M 101.18 223.00
  L 96.25 223.00
  Q 95.94 220.86 96.39 219.23
  Q 97.20 216.28 97.21 216.21
  Q 97.83 210.45 95.69 206.44
  Q 92.36 200.23 85.40 196.67
  Q 83.81 195.86 82.08 195.74
  Q 80.34 195.62 78.72 194.60
  Q 77.00 193.52 74.83 193.15
  Q 68.03 192.01 61.32 192.07
  Q 61.41 190.88 62.73 189.93
  Q 63.68 189.25 64.83 189.19
  C 72.75 188.76 81.02 188.69 88.59 191.78
  Q 100.00 196.42 101.46 208.76
  Q 102.30 215.92 101.18 223.00
  Z" />
  <path fill="#b5b3b6" d="
  M 96.25 223.00
  L 93.46 223.00
  C 93.49 221.16 93.34 219.43 93.76 217.61
  C 94.85 212.83 92.90 205.97 88.44 202.86
  Q 77.33 195.14 63.07 195.96
  A 1.72 1.72 0.0 0 1 61.24 194.17
  L 61.32 192.07
  Q 68.03 192.01 74.83 193.15
  Q 77.00 193.52 78.72 194.60
  Q 80.34 195.62 82.08 195.74
  Q 83.81 195.86 85.40 196.67
  Q 92.36 200.23 95.69 206.44
  Q 97.83 210.45 97.21 216.21
  Q 97.20 216.28 96.39 219.23
  Q 95.94 220.86 96.25 223.00
  Z" />
  <path fill="#b5b3b6" d="
  M 206.79 192.70
  Q 207.07 194.09 206.78 195.44
  Q 206.68 195.93 206.18 196.02
  Q 199.46 197.25 192.01 201.42
  Q 186.70 204.39 184.30 209.82
  Q 183.08 212.59 182.74 223.00
  L 178.49 223.00
  Q 180.23 221.41 180.14 218.94
  Q 180.02 215.41 180.08 215.02
  Q 180.71 210.76 182.29 206.19
  Q 183.20 203.57 185.13 201.78
  Q 187.22 199.85 189.18 198.21
  Q 194.31 193.92 201.38 193.66
  C 203.27 193.59 204.93 192.97 206.79 192.70
  Z" />
  <path fill="#201e21" d="
  M 144.21 205.62
  Q 138.64 207.35 132.77 206.13
  Q 113.71 202.18 103.76 199.90
  Q 103.07 199.75 102.96 199.29
  Q 103.13 199.05 103.14 198.71
  Q 103.15 198.19 103.66 198.06
  Q 103.83 198.02 103.98 198.12
  Q 104.46 198.42 104.96 198.19
  Q 107.66 196.99 110.33 197.39
  Q 115.44 198.15 121.14 198.86
  Q 129.54 199.90 139.42 200.02
  Q 144.65 200.08 149.50 200.53
  Q 154.61 201.01 159.57 200.48
  A 0.31 0.30 -75.8 0 1 159.85 200.96
  Q 158.84 202.45 157.12 202.04
  Q 156.54 201.90 155.96 202.06
  Q 153.74 202.66 151.21 203.02
  Q 147.02 203.62 143.91 204.62
  Q 143.71 204.68 143.65 204.87
  Q 143.60 205.02 143.59 205.17
  Q 143.59 205.41 143.82 205.45
  Q 144.02 205.48 144.21 205.62
  Z" />
  <path fill="#c47249" d="
  M 57.36 223.00
  L 13.46 223.00
  Q 5.03 211.90 2.87 198.80
  Q 2.77 198.21 3.37 198.24
  Q 14.57 198.93 25.71 202.29
  Q 39.57 206.48 50.74 216.78
  Q 54.11 219.89 57.36 223.00
  Z" />
  <path fill="#b5b3b6" d="
  M 174.20 203.10
  Q 173.18 202.78 171.92 203.17
  L 141.27 209.96
  Q 140.56 210.11 140.60 210.84
  L 140.67 212.02
  Q 140.71 212.75 141.44 212.83
  C 142.92 212.98 144.19 213.09 145.35 214.17
  Q 149.06 217.60 148.79 223.00
  L 131.60 223.00
  L 132.10 215.50
  A 1.56 1.55 79.4 0 1 132.99 214.19
  Q 134.69 213.38 136.61 212.99
  Q 137.18 212.88 137.27 212.31
  Q 137.45 211.25 136.97 210.55
  Q 136.69 210.14 136.20 210.04
  L 107.23 204.04
  L 104.80 203.67
  Q 104.26 203.58 104.06 203.07
  L 102.56 199.27
  A 0.07 0.07 0.0 0 1 102.67 199.19
  Q 102.80 199.30 102.96 199.29
  Q 103.07 199.75 103.76 199.90
  Q 113.71 202.18 132.77 206.13
  Q 138.64 207.35 144.21 205.62
  L 176.73 198.75
  A 0.24 0.24 0.0 0 1 176.98 199.12
  L 174.20 203.10
  Z
  M 142.88 219.32
  Q 141.63 218.94 141.63 220.25
  L 141.63 220.83
  Q 141.63 221.49 142.24 221.75
  Q 143.35 222.21 143.94 221.24
  Q 144.23 220.77 144.76 220.90
  Q 145.16 221.00 145.25 221.39
  Q 145.30 221.64 145.55 221.71
  Q 145.74 221.77 145.89 221.65
  Q 146.17 221.45 146.07 221.11
  L 145.42 218.99
  Q 144.91 217.36 144.03 218.87
  Q 143.64 219.55 142.88 219.32
  Z" />
  <path fill="#201e21" d="
  M 86.55 223.00
  L 64.86 223.00
  Q 64.14 219.98 64.49 217.75
  Q 65.71 209.96 67.28 202.26
  A 1.56 1.56 0.0 0 1 68.95 201.02
  Q 71.50 201.25 74.09 202.34
  Q 75.01 202.73 75.76 203.45
  C 77.68 205.29 80.41 203.65 82.21 206.43
  Q 82.54 206.94 83.07 207.25
  Q 85.45 208.66 85.89 210.30
  Q 86.23 211.53 86.67 212.88
  Q 87.21 214.52 87.28 215.67
  Q 87.52 219.78 86.55 223.00
  Z" />
  <path fill="#201e21" d="
  M 212.86 223.00
  L 188.94 223.00
  Q 188.66 219.24 188.76 215.44
  Q 188.84 212.55 189.99 211.00
  Q 191.29 209.26 192.73 207.38
  Q 193.61 206.23 194.93 206.17
  Q 195.35 206.16 195.62 205.83
  Q 196.05 205.33 196.15 204.71
  A 1.00 0.98 -12.2 0 1 196.59 204.04
  Q 199.30 202.28 202.62 202.01
  Q 203.07 201.97 203.37 202.29
  Q 204.02 202.97 204.54 203.76
  Q 208.30 209.47 211.03 215.96
  Q 212.55 219.58 212.86 223.00
  Z" />
  <path fill="#201e21" d="
  M 174.20 203.10
  Q 173.82 205.38 173.13 207.58
  Q 172.39 209.97 172.33 212.05
  Q 172.19 217.57 171.61 223.00
  L 151.45 223.00
  Q 150.78 220.68 150.19 218.36
  Q 149.65 216.22 148.66 214.97
  C 147.37 213.32 145.56 211.90 143.42 211.49
  Q 142.26 211.26 143.42 211.07
  Q 146.23 210.60 149.17 209.73
  C 151.62 209.00 154.05 209.14 156.46 208.05
  C 158.20 207.26 160.03 207.41 161.83 206.86
  Q 166.66 205.41 170.96 204.83
  Q 171.67 204.74 171.84 204.33
  Q 172.01 203.90 171.92 203.17
  Q 173.18 202.78 174.20 203.10
  Z" />
  <path fill="#040305" d="
  M 171.92 203.17
  Q 172.01 203.90 171.84 204.33
  Q 171.67 204.74 170.96 204.83
  Q 166.66 205.41 161.83 206.86
  C 160.03 207.41 158.20 207.26 156.46 208.05
  C 154.05 209.14 151.62 209.00 149.17 209.73
  Q 146.23 210.60 143.42 211.07
  Q 142.26 211.26 143.42 211.49
  C 145.56 211.90 147.37 213.32 148.66 214.97
  Q 149.65 216.22 150.19 218.36
  Q 150.78 220.68 151.45 223.00
  L 148.79 223.00
  Q 149.06 217.60 145.35 214.17
  C 144.19 213.09 142.92 212.98 141.44 212.83
  Q 140.71 212.75 140.67 212.02
  L 140.60 210.84
  Q 140.56 210.11 141.27 209.96
  L 171.92 203.17
  Z" />
  <path fill="#201e21" d="
  M 107.23 204.04
  L 136.20 210.04
  Q 136.69 210.14 136.97 210.55
  Q 137.45 211.25 137.27 212.31
  Q 137.18 212.88 136.61 212.99
  Q 134.69 213.38 132.99 214.19
  A 1.56 1.55 79.4 0 0 132.10 215.50
  L 131.60 223.00
  L 104.69 223.00
  Q 104.69 221.15 104.97 219.30
  C 105.50 215.93 104.97 212.65 104.87 209.29
  C 104.83 208.06 104.48 207.09 103.96 206.00
  Q 103.62 205.29 104.41 205.23
  Q 106.41 205.05 107.23 204.04
  Z" />
  <path fill="#d3ecec" d="
  M 0.00 208.69
  Q 2.39 216.36 7.18 223.00
  L 0.00 223.00
  L 0.00 208.69
  Z" />
  <path fill="#ebe9ec" d="
  M 142.88 219.32
  Q 143.64 219.55 144.03 218.87
  Q 144.91 217.36 145.42 218.99
  L 146.07 221.11
  Q 146.17 221.45 145.89 221.65
  Q 145.74 221.77 145.55 221.71
  Q 145.30 221.64 145.25 221.39
  Q 145.16 221.00 144.76 220.90
  Q 144.23 220.77 143.94 221.24
  Q 143.35 222.21 142.24 221.75
  Q 141.63 221.49 141.63 220.83
  L 141.63 220.25
  Q 141.63 218.94 142.88 219.32
  Z" />
</svg>